<?xml version="1.0" encoding="UTF-8" standalone="no"?>
<!-- Created with Inkscape (http://www.inkscape.org/) -->

<svg
   width="48"
   height="48"
   viewBox="0 0 48 48"
   version="1.1"
   id="svg1"
   inkscape:export-filename="homeicon.png"
   inkscape:export-xdpi="96"
   inkscape:export-ydpi="96"
   inkscape:version="1.4.3 (0d15f75, 2025-12-25)"
   sodipodi:docname="homeicon.svg"
   xmlns:inkscape="http://www.inkscape.org/namespaces/inkscape"
   xmlns:sodipodi="http://sodipodi.sourceforge.net/DTD/sodipodi-0.dtd"
   xmlns="http://www.w3.org/2000/svg"
   xmlns:svg="http://www.w3.org/2000/svg">
  <sodipodi:namedview
     id="namedview1"
     pagecolor="#505050"
     bordercolor="#ffffff"
     borderopacity="1"
     inkscape:showpageshadow="0"
     inkscape:pageopacity="0"
     inkscape:pagecheckerboard="1"
     inkscape:deskcolor="#505050"
     inkscape:document-units="px"
     inkscape:zoom="5.6568543"
     inkscape:cx="38.625708"
     inkscape:cy="39.863145"
     inkscape:window-width="1920"
     inkscape:window-height="991"
     inkscape:window-x="-9"
     inkscape:window-y="-9"
     inkscape:window-maximized="1"
     inkscape:current-layer="layer1"
     inkscape:export-bgcolor="#00000000" />
  <defs
     id="defs1" />
  <g
     inkscape:label="Layer 1"
     inkscape:groupmode="layer"
     id="layer1">
    <path
       style="fill:#a8a8a8;fill-opacity:1;stroke:none;stroke-width:0.883984;stroke-linecap:round;stroke-linejoin:round;paint-order:stroke fill markers;stroke-opacity:1"
       d="m 8.6689641,42.724274 c 0,0 18.3107729,-5.868089 32.1241629,0 l 3.84729,-25.453318 -2.730554,-0.548419 -0.75875,4.184051 -4.069061,-0.987155 1.00808,-4.261609 -4.233487,-1.042568 -3.430382,16.579179 c 1.690586,-8.413652 3.381172,-15.61058 5.071758,-25.8762668 L 31.262959,4.3349107 29.977993,9.7642632 26.212917,8.9804134 V 4.2640059 h -4.925706 l 0.428322,4.9357752 -3.784102,0.4547981 -0.910184,-5.2099846 -4.229681,1.0968389 5.850456,26.2601605 -3.468702,-15.454013 -4.229682,1.041997 0.723581,3.946336 -3.5336576,1.206523 -1.388242,-4.307515 -3.2659565,0.767788 z"
       id="path2"
       sodipodi:nodetypes="ccccccccccccccccccccccccccc" />
    <path
       style="fill:none;fill-opacity:1;stroke:#828282;stroke-width:0.2;stroke-linecap:round;stroke-linejoin:round;stroke-dasharray:none;stroke-opacity:1;paint-order:stroke fill markers"
       d="m 13.722291,10.385631 c 12.042912,-3.4471456 20.815456,0.441942 20.815456,0.441942"
       id="path21"
       sodipodi:nodetypes="cc" />
    <path
       style="fill:none;fill-opacity:1;stroke:#747474;stroke-width:0.384;stroke-linecap:round;stroke-linejoin:round;stroke-dasharray:none;stroke-opacity:1;paint-order:stroke fill markers"
       d="m 8.5958512,42.647768 c 0,0 18.3107728,-5.868089 32.1241628,0 L 44.567304,17.19445 41.83675,16.646031 41.078,20.830082 37.008939,19.842927 38.017019,15.581318 33.783532,14.53875 30.35315,31.117929 c 1.690586,-8.413652 3.381172,-15.61058 5.071758,-25.8762668 L 31.189846,4.2584047 29.90488,9.6877572 26.139804,8.9039074 V 4.1874999 H 21.214098 L 21.64242,9.1232751 17.858318,9.5780732 16.948134,4.3680886 12.718453,5.4649275 18.568909,31.725088 15.100207,16.271075 10.870525,17.313072 11.594106,21.259408 8.0604485,22.465931 6.6722065,18.158416 3.40625,18.926204 Z"
       id="path2-4"
       sodipodi:nodetypes="ccccccccccccccccccccccccccc" />
    <path
       style="fill:none;fill-opacity:1;stroke:#828282;stroke-width:0.2;stroke-linecap:round;stroke-linejoin:round;stroke-dasharray:none;stroke-opacity:1;paint-order:stroke fill markers"
       d="m 14.625,13.8125 c 9.59375,-3.125 19.1875,0.5625 19.1875,0.5625"
       id="path4"
       sodipodi:nodetypes="cc" />
    <path
       style="fill:none;fill-opacity:1;stroke:#828282;stroke-width:0.2;stroke-linecap:round;stroke-linejoin:round;stroke-dasharray:none;stroke-opacity:1;paint-order:stroke fill markers"
       d="M 15.8125,18.8125 C 24.38617,14.039529 33,19.1875 33,19.1875"
       id="path5"
       sodipodi:nodetypes="cc" />
    <path
       style="fill:none;fill-opacity:1;stroke:#828282;stroke-width:0.2;stroke-linecap:round;stroke-linejoin:round;stroke-dasharray:none;stroke-opacity:1;paint-order:stroke fill markers"
       d="m 17,24.25 c 6.717514,-4.817165 14.8125,0.1875 14.8125,0.1875"
       id="path6"
       sodipodi:nodetypes="cc" />
    <path
       style="fill:none;fill-opacity:1;stroke:#828282;stroke-width:0.2;stroke-linecap:round;stroke-linejoin:round;stroke-dasharray:none;stroke-opacity:1;paint-order:stroke fill markers"
       d="m 4.8125,25.5 c 0,0 4.6789322,-5.161073 11.75,-3.4375"
       id="path7"
       sodipodi:nodetypes="cc" />
    <path
       style="fill:none;fill-opacity:1;stroke:#828282;stroke-width:0.2;stroke-linecap:round;stroke-linejoin:round;stroke-dasharray:none;stroke-opacity:1;paint-order:stroke fill markers"
       d="m 6.375,31.4375 c 0,0 3.4825487,-8.822908 11.4375,-2.8125"
       id="path8"
       sodipodi:nodetypes="cc" />
    <path
       style="fill:none;fill-opacity:1;stroke:#828282;stroke-width:0.2;stroke-linecap:round;stroke-linejoin:round;stroke-dasharray:none;stroke-opacity:1;paint-order:stroke fill markers"
       d="m 32.4375,21.6875 c 0,0 7.810437,-2.548859 11.125,2.3125"
       id="path9"
       sodipodi:nodetypes="cc" />
    <path
       style="fill:none;fill-opacity:1;stroke:#828282;stroke-width:0.2;stroke-linecap:round;stroke-linejoin:round;stroke-dasharray:none;stroke-opacity:1;paint-order:stroke fill markers"
       d="m 31.1875,27.5625 c 0,0 7.769384,-4.456791 11.4375,2.4375"
       id="path10"
       sodipodi:nodetypes="cc" />
    <path
       style="fill:none;fill-opacity:1;stroke:#828282;stroke-width:0.2;stroke-linecap:round;stroke-linejoin:round;stroke-dasharray:none;stroke-opacity:1;paint-order:stroke fill markers"
       d="m 7.0625,34.625 c 0,0 17.713796,-6.781854 34.993718,-0.948223"
       id="path11"
       sodipodi:nodetypes="cc" />
    <path
       style="fill:none;fill-opacity:1;stroke:#828282;stroke-width:0.2;stroke-linecap:round;stroke-linejoin:round;stroke-dasharray:none;stroke-opacity:1;paint-order:stroke fill markers"
       d="m 8,39.4375 c 0,0 15.858942,-8.63801 33.625,-1.125"
       id="path12"
       sodipodi:nodetypes="cc" />
    <path
       style="fill:#8db9c3;fill-opacity:1;stroke:#828282;stroke-width:0.2;stroke-linecap:round;stroke-linejoin:round;stroke-dasharray:none;stroke-opacity:1;paint-order:stroke fill markers"
       d="m 8.0625,22.625 5,19"
       id="path13" />
    <path
       style="fill:#8db9c3;fill-opacity:1;stroke:#828282;stroke-width:0.2;stroke-linecap:round;stroke-linejoin:round;stroke-dasharray:none;stroke-opacity:1;paint-order:stroke fill markers"
       d="M 11.5,21.3125 16.3125,40.875"
       id="path14" />
    <path
       style="fill:#8db9c3;fill-opacity:1;stroke:#828282;stroke-width:0.2;stroke-linecap:round;stroke-linejoin:round;stroke-dasharray:none;stroke-opacity:1;paint-order:stroke fill markers"
       d="m 18,9.9375 2.9375,30.375"
       id="path15" />
    <path
       style="fill:#8db9c3;fill-opacity:1;stroke:#828282;stroke-width:0.2;stroke-linecap:round;stroke-linejoin:round;stroke-dasharray:none;stroke-opacity:1;paint-order:stroke fill markers"
       d="m 24,9 0.6875,31"
       id="path16" />
    <path
       style="fill:#8db9c3;fill-opacity:1;stroke:#828282;stroke-width:0.2;stroke-linecap:round;stroke-linejoin:round;stroke-dasharray:none;stroke-opacity:1;paint-order:stroke fill markers"
       d="M 29.9375,9.5625 28.375,39.875"
       id="path17" />
    <path
       style="fill:#8db9c3;fill-opacity:1;stroke:#828282;stroke-width:0.2;stroke-linecap:round;stroke-linejoin:round;stroke-dasharray:none;stroke-opacity:1;paint-order:stroke fill markers"
       d="m 36.9375,19.625 -4.5,20.6875"
       id="path18" />
    <path
       style="fill:#8db9c3;fill-opacity:1;stroke:#828282;stroke-width:0.2;stroke-linecap:round;stroke-linejoin:round;stroke-dasharray:none;stroke-opacity:1;paint-order:stroke fill markers"
       d="M 41.125,20.875 37.1875,41.1875"
       id="path19" />
    <path
       style="fill:none;fill-opacity:1;stroke:#828282;stroke-width:0.2;stroke-linecap:round;stroke-linejoin:round;stroke-dasharray:none;stroke-opacity:1;paint-order:stroke fill markers"
       d="m 18.5,30.75 c 6.363961,-6.319767 11.875,-0.0625 11.875,-0.0625"
       id="path20"
       sodipodi:nodetypes="cc" />
    <g
       id="g3"
       transform="matrix(0.55185323,0,0,0.55185323,11.220946,5.7774064)">
      <path
         id="path3"
         style="fill:#8db9c3;fill-opacity:1;stroke:#6a4500;stroke-width:0.910534;stroke-linecap:round;stroke-linejoin:round;stroke-opacity:1;paint-order:stroke fill markers"
         d="m 21.354667,14.623248 c 0,-1.379483 1.125785,-2.497774 2.514512,-2.497774 1.388727,0 2.514512,1.118291 2.514512,2.497774"
         sodipodi:nodetypes="csc" />
      <path
         id="rect2"
         style="fill:#8db9c3;stroke:#6a4500;stroke-width:0.954902;stroke-linecap:round;stroke-linejoin:round;paint-order:stroke fill markers"
         d="m 21.374123,14.709031 h 5 v 8.72289 c 0,0 -2.292384,-0.386802 -5.107445,0 0.08596,-0.752116 0.107445,-8.72289 0.107445,-8.72289 z"
         sodipodi:nodetypes="ccccc" />
    </g>
    <g
       id="g3-8"
       transform="matrix(0.43351799,0.1108643,-0.1108643,0.43351799,29.648094,15.363496)">
      <path
         id="path3-2"
         style="fill:#8db9c3;fill-opacity:1;stroke:#6a4500;stroke-width:0.910534;stroke-linecap:round;stroke-linejoin:round;stroke-opacity:1;paint-order:stroke fill markers"
         d="m 21.354667,14.623248 c 0,-1.379483 1.125785,-2.497774 2.514512,-2.497774 1.388727,0 2.514512,1.118291 2.514512,2.497774"
         sodipodi:nodetypes="csc" />
      <rect
         style="fill:#8db9c3;fill-opacity:1;stroke:#6a4500;stroke-width:0.954902;stroke-linecap:round;stroke-linejoin:round;stroke-opacity:1;paint-order:stroke fill markers"
         id="rect2-4"
         width="5"
         height="8.7228899"
         x="21.374123"
         y="14.709031" />
    </g>
    <g
       id="g3-1"
       transform="matrix(0.46831982,-0.14499573,0.14499573,0.46831982,-2.3962082,22.019829)">
      <path
         id="path3-1"
         style="fill:#8db9c3;fill-opacity:1;stroke:#6a4500;stroke-width:0.910534;stroke-linecap:round;stroke-linejoin:round;stroke-opacity:1;paint-order:stroke fill markers"
         d="m 21.354667,14.623248 c 0,-1.379483 1.125785,-2.497774 2.514512,-2.497774 1.388727,0 2.514512,1.118291 2.514512,2.497774"
         sodipodi:nodetypes="csc" />
      <rect
         style="fill:#8db9c3;fill-opacity:1;stroke:#6a4500;stroke-width:0.954902;stroke-linecap:round;stroke-linejoin:round;stroke-opacity:1;paint-order:stroke fill markers"
         id="rect2-5"
         width="5"
         height="8.7228899"
         x="21.374123"
         y="14.709031" />
    </g>
    <g
       id="g24"
       transform="matrix(0.56959811,0,0,0.56959811,10.943398,17.248796)">
      <path
         style="fill:#693f1e;fill-opacity:1;stroke:#693f1e;stroke-width:0.2;stroke-linecap:round;stroke-linejoin:round;stroke-dasharray:none;stroke-opacity:1;paint-order:stroke fill markers"
         d="m 21.124815,40.415572 c 0,0 3.701262,-0.452991 7.932854,-0.198874 l -0.287262,-8.838835 c -4.507806,-2.519068 -7.733981,0.154679 -7.733981,0.154679 z"
         id="path22"
         sodipodi:nodetypes="ccccc" />
      <circle
         style="fill:none;fill-opacity:1;stroke:#201309;stroke-width:0.0735652;stroke-linecap:round;stroke-linejoin:round;stroke-dasharray:none;stroke-opacity:1;paint-order:stroke fill markers"
         id="path23"
         cx="25.988426"
         cy="35.613808"
         r="0.46321741" />
      <circle
         style="fill:none;fill-opacity:1;stroke:#201309;stroke-width:0.0735652;stroke-linecap:round;stroke-linejoin:round;stroke-dasharray:none;stroke-opacity:1;paint-order:stroke fill markers"
         id="path23-1"
         cx="24.097048"
         cy="35.613808"
         r="0.46321741" />
      <path
         style="fill:none;fill-opacity:1;stroke:#201309;stroke-width:0.1;stroke-linecap:round;stroke-linejoin:round;stroke-dasharray:none;stroke-opacity:1;paint-order:stroke fill markers"
         d="m 25.011451,30.251027 0.0039,9.972258"
         id="path24"
         sodipodi:nodetypes="cc" />
    </g>
  </g>
</svg>
