<?xml version="1.0" encoding="UTF-8" standalone="no"?>
<!-- Created with Inkscape (http://www.inkscape.org/) -->

<svg
   width="250"
   height="250"
   viewBox="0 0 66.145832 66.145833"
   version="1.1"
   id="svg1"
   xml:space="preserve"
   inkscape:version="1.4.3 (0d15f75, 2025-12-25)"
   sodipodi:docname="kilit.svg"
   xmlns:inkscape="http://www.inkscape.org/namespaces/inkscape"
   xmlns:sodipodi="http://sodipodi.sourceforge.net/DTD/sodipodi-0.dtd"
   xmlns="http://www.w3.org/2000/svg"
   xmlns:svg="http://www.w3.org/2000/svg"><sodipodi:namedview
     id="namedview1"
     pagecolor="#505050"
     bordercolor="#ffffff"
     borderopacity="1"
     inkscape:showpageshadow="0"
     inkscape:pageopacity="0"
     inkscape:pagecheckerboard="1"
     inkscape:deskcolor="#505050"
     inkscape:document-units="mm"
     inkscape:zoom="2"
     inkscape:cx="2.5"
     inkscape:cy="156.25"
     inkscape:window-width="1920"
     inkscape:window-height="1009"
     inkscape:window-x="-8"
     inkscape:window-y="-8"
     inkscape:window-maximized="1"
     inkscape:current-layer="layer1" /><defs
     id="defs1" /><g
     inkscape:label="Layer 1"
     inkscape:groupmode="layer"
     id="layer1"><path
       style="fill:#efb434;stroke:#da9500;stroke-width:0.225954;stroke-linecap:round;stroke-linejoin:round;stroke-opacity:1;paint-order:stroke fill markers;fill-opacity:1"
       d="m 45.960294,23.413546 c -1.661884,1.702137 -4.355013,1.60167 -4.355013,1.60167 l 0.104367,-9.730914 c 0.0068,-5.7815639 -3.612604,-10.1007505 -8.531542,-10.1007505 -4.918938,-5e-7 -8.632443,3.9288318 -8.641643,9.7429265 l 0.0884,10.283916 c -1.789125,-0.130118 -3.427045,-0.307478 -4.554136,-1.756595 l 0.203594,-11.7269 c 0.0084,-5.8098427 6.041096,-10.5064653 12.840746,-10.5064648 6.79965,0 12.702209,4.6966224 12.710632,10.4901998 z"
       id="path6"
       sodipodi:nodetypes="cccsccccscc" /><path
       style="fill:#5d543e;stroke:#252219;stroke-width:0.225954;stroke-linecap:round;stroke-linejoin:round;stroke-opacity:1;paint-order:stroke fill markers;fill-opacity:1"
       d="m 20.038197,23.35621 c 0,0 5.09523,4.108763 13.076875,0.520473 6.854554,3.33527 12.816639,-0.455414 12.816639,-0.455414 l 4.944491,5.790257 c 0,0 -4.228842,8.913096 -0.780711,20.168317 0,0 0.878299,8.555267 -6.375789,13.467228 -3.220425,2.081891 -7.546853,2.277068 -7.546853,2.277068 l -6.050495,0.06506 c -6.440849,-0.520473 -9.17333,-3.513191 -9.17333,-3.513191 -4.781842,-4.521606 -4.814372,-8.978153 -4.814372,-8.978153 -0.520473,-4.521606 1.171063,-9.303449 1.171063,-9.303449 0.780709,-4.97702 -0.325295,-8.457681 -0.325295,-8.457681 -0.130118,-2.537304 -1.789124,-5.660139 -1.789124,-5.660139 z"
       id="path1"
       sodipodi:nodetypes="cccccccccccccc" /><path
       style="fill:#9abbab;stroke:#62907a;stroke-width:0.20507;stroke-linecap:round;stroke-linejoin:round;stroke-opacity:1;paint-order:stroke fill markers;fill-opacity:1"
       d="m 20.366199,25.203173 c 1.993557,1.610181 6.345908,2.329843 10.901745,1.642942 1.309979,-0.19751 2.279337,-0.123592 3.76994,0.01661 7.343021,0.690645 10.845432,-1.470383 10.845432,-1.470383 l 3.771843,4.084025 c 0,0 -4.033165,8.154355 -0.90373,18.369303 0,0 2.098303,8.805484 -6.306974,13.783926 -2.922776,1.889471 -6.84933,2.066609 -6.84933,2.066609 l -5.491273,0.05905 c -5.845548,-0.472368 -8.325478,-3.188481 -8.325478,-3.188481 -4.339876,-4.103693 -4.3694,-8.148341 -4.3694,-8.148341 -0.472367,-4.103693 1.062827,-8.44357 1.062827,-8.44357 0.689383,-4.394818 0.215635,-9.70844 -1.918992,-14.50451 z"
       id="path1-4"
       sodipodi:nodetypes="cssccccccccccc" /><ellipse
       style="fill:#5d543e;stroke:#252219;stroke-width:0.225954;stroke-linecap:round;stroke-linejoin:round;stroke-opacity:1;paint-order:stroke fill markers;fill-opacity:1"
       id="path2"
       cx="22.445383"
       cy="32.139187"
       rx="2.9927177"
       ry="3.1228359" /><ellipse
       style="fill:#5d543e;stroke:#252219;stroke-width:0.225954;stroke-linecap:round;stroke-linejoin:round;stroke-opacity:1;paint-order:stroke fill markers;fill-opacity:1"
       id="path2-8"
       cx="43.707932"
       cy="32.123215"
       rx="2.9927177"
       ry="3.1228359" /><ellipse
       style="fill:#5d543e;stroke:#252219;stroke-width:0.199992;stroke-linecap:round;stroke-linejoin:round;stroke-opacity:1;paint-order:stroke fill markers;fill-opacity:1"
       id="path2-3"
       cx="42.364136"
       cy="55.592861"
       rx="2.7181754"
       ry="2.6935389" /><ellipse
       style="fill:#5d543e;stroke:#252219;stroke-width:0.199992;stroke-linecap:round;stroke-linejoin:round;stroke-opacity:1;paint-order:stroke fill markers;fill-opacity:1"
       id="path2-3-0"
       cx="23.827915"
       cy="55.676128"
       rx="2.7181754"
       ry="2.6935389" /><path
       style="fill:#9b9c9d;fill-opacity:1;stroke:#625e5f;stroke-width:0.225954;stroke-linecap:round;stroke-linejoin:round;stroke-opacity:1;paint-order:stroke fill markers"
       d="m 31.143716,26.871904 0.832822,2.2583 2.114421,0.03253 0.894561,-2.309596 c -1.413867,-0.169499 -2.94893,-0.159662 -3.841804,0.01877 z"
       id="path3"
       sodipodi:nodetypes="ccccc" /><path
       style="display:inline;fill:#5d543e;stroke:#252219;stroke-width:0.225954;stroke-linecap:round;stroke-linejoin:round;stroke-opacity:1;paint-order:stroke fill markers;fill-opacity:1"
       d="m 36.225043,61.248149 c 0.146163,0.599268 -0.409258,0.608039 -0.409258,0.608039 l -5.682816,-0.04677 c -0.413411,0.03307 -0.168907,-0.59145 -0.168907,-0.59145 l 1.591531,-5.121376 c -1.844255,-0.718918 -3.362621,-2.38661 -3.362621,-5.126621 0,-2.957134 2.219235,-5.354365 4.956801,-5.354365 2.737566,0 4.956801,2.397231 4.956801,5.354365 0,2.828713 -1.618261,4.514553 -3.562084,5.153846 z"
       id="path7"
       sodipodi:nodetypes="cccccssscc" /><path
       d="m 31.931901,54.901042 -0.381815,1.202886 -1.591531,5.121376 c 0,0 -0.244504,0.62452 0.168907,0.59145 l 5.682816,0.04677 c 0,0 0.555421,-0.0088 0.409258,-0.608039 l -1.680553,-5.124327 -0.366392,-1.230116"
       style="fill:#5d543e;stroke:#252219;stroke-width:0.225954;stroke-linecap:round;stroke-linejoin:round;stroke-opacity:1;paint-order:stroke fill markers;fill-opacity:1"
       id="path1-0"
       sodipodi:nodetypes="cccccccc" /><path
       style="fill:#000000;stroke:#000000;stroke-width:0.225954;stroke-linecap:round;stroke-linejoin:round;stroke-opacity:1;paint-order:stroke fill markers;fill-opacity:1"
       d="m 33.079615,46.772165 c 0,0 3.765163,4.349813 0.02339,7.694023 0,0 -3.847015,-2.701094 -0.02339,-7.694023 z"
       id="path8"
       sodipodi:nodetypes="ccc" /></g></svg>
