<?xml version="1.0" encoding="UTF-8" standalone="no"?>
<!-- Created with Inkscape (http://www.inkscape.org/) -->

<svg
   width="250"
   height="250"
   viewBox="0 0 66.145832 66.145833"
   version="1.1"
   id="svg1"
   xml:space="preserve"
   inkscape:version="1.4.3 (0d15f75, 2025-12-25)"
   sodipodi:docname="kurukafa.svg"
   xmlns:inkscape="http://www.inkscape.org/namespaces/inkscape"
   xmlns:sodipodi="http://sodipodi.sourceforge.net/DTD/sodipodi-0.dtd"
   xmlns="http://www.w3.org/2000/svg"
   xmlns:svg="http://www.w3.org/2000/svg"><sodipodi:namedview
     id="namedview1"
     pagecolor="#505050"
     bordercolor="#ffffff"
     borderopacity="1"
     inkscape:showpageshadow="0"
     inkscape:pageopacity="0"
     inkscape:pagecheckerboard="1"
     inkscape:deskcolor="#505050"
     inkscape:document-units="mm"
     inkscape:zoom="2.7545174"
     inkscape:cx="91.123041"
     inkscape:cy="137.0476"
     inkscape:window-width="1920"
     inkscape:window-height="991"
     inkscape:window-x="-9"
     inkscape:window-y="-9"
     inkscape:window-maximized="1"
     inkscape:current-layer="layer1" /><defs
     id="defs1" /><g
     inkscape:label="Layer 1"
     inkscape:groupmode="layer"
     id="layer1"><path
       style="display:inline;fill:#4d4d4d;stroke:#262626;stroke-width:0.226;stroke-linecap:round;stroke-linejoin:round;stroke-dasharray:none;stroke-opacity:1;paint-order:stroke fill markers;fill-opacity:1"
       d="m 26.150792,63.13171 c -0.384106,0.02694 -0.407716,0.856114 -0.792448,0.840475 -1.024234,-0.04163 -1.619513,-1.421643 -1.921087,-2.401358 -0.243285,-0.790353 0.443284,-1.685518 0.192109,-2.473399 -0.246854,-0.77433 -1.312857,-1.099105 -1.560883,-1.87306 -0.328245,-1.024279 0.820598,-2.312306 0.240136,-3.21782 -0.396387,-0.618359 -1.362349,-0.981826 -2.065168,-0.768434 -0.74614,0.226545 -0.730546,1.449065 -1.368775,1.897073 -0.620047,0.435245 -1.437165,0.743879 -2.185236,0.624353 -0.916384,-0.146419 -1.652195,-0.901606 -2.305304,-1.560883 -0.703092,-0.709732 -1.277193,-1.573372 -1.656937,-2.497413 -0.536445,-1.305343 -0.386436,-2.810189 -0.816462,-4.15435 -0.283811,-0.887126 -1.027793,-1.622427 -1.152652,-2.545439 -0.179234,-1.324976 0.745582,-2.630705 0.624353,-3.962242 -0.11385,-1.250493 -1.069013,-2.311269 -1.248706,-3.55401 -0.1582811,-1.094661 0.222034,-2.209145 0.168095,-3.313874 C 10.241045,32.926442 9.9738019,31.69926 9.7495147,30.473237 9.4709406,28.950465 8.8742741,27.478849 8.7649578,25.93467 8.6397115,24.165467 8.810694,22.368701 9.1491751,20.627668 9.4878217,18.885784 9.99575,17.151555 10.782099,15.560802 c 1.014463,-2.05222 2.265128,-4.055345 3.914214,-5.6431922 1.895445,-1.8250567 4.339079,-2.9954003 6.651763,-4.2504042 2.07806,-1.1276825 4.200171,-2.2334215 6.459653,-2.9296571 2.010928,-0.6196463 4.115389,-1.1014417 6.219518,-1.0806113 1.973194,0.019534 3.925583,0.5472624 5.811287,1.1286384 2.148401,0.6623674 4.174513,1.6806475 6.195505,2.6655077 1.829057,0.8913274 3.720441,1.7180319 5.355029,2.9296572 1.773458,1.3145613 3.544803,2.7726525 4.730676,4.6346215 0.971013,1.524613 1.350575,3.364347 1.801018,5.114893 0.400401,1.556069 0.811668,3.148047 0.792449,4.75469 -0.01579,1.320167 -0.546535,2.584853 -0.744422,3.8902 -0.225765,1.48924 -0.331813,2.994191 -0.504285,4.49054 -0.187355,1.625474 -0.602406,3.238729 -0.576326,4.874757 0.01884,1.181705 0.468064,2.325665 0.528299,3.505984 0.05146,1.008401 0.0697,2.03889 -0.144081,3.025711 -0.224392,1.035779 -0.841744,1.948177 -1.176666,2.953671 -0.387815,1.164285 -0.345806,2.49191 -0.960543,3.55401 -0.725845,1.254064 -2.021791,2.077279 -3.073739,3.073739 -1.366249,1.294181 -2.334904,3.537573 -4.202377,3.770132 -0.717704,0.08938 -1.539873,-0.393945 -1.921087,-1.00857 -0.367156,-0.59196 0.462779,-1.615584 -0.04803,-2.089182 -0.446724,-0.41418 -1.342851,-0.276252 -1.825032,0.09605 -0.897662,0.693104 -0.94469,2.111142 -1.032584,3.241834 -0.08537,1.098204 0.726649,2.187008 0.504285,3.265847 -0.301286,1.461747 -1.287124,2.774883 -2.377345,3.794146 -0.272065,0.254357 -0.62501,0.625473 -0.984557,0.528299 -0.39891,-0.107813 -0.269316,-0.892054 -0.648366,-1.056597 -0.367202,-0.1594 -0.817683,0.063 -1.176666,0.240135 -0.798849,0.394181 -1.176874,2.048778 -2.017141,1.752992 -0.468002,-0.164744 0.135578,-1.170916 -0.264149,-1.464829 -0.519926,-0.382293 -1.360685,-0.0799 -1.921087,0.240136 -0.500515,0.285833 -0.482625,1.316139 -1.056598,1.368775 -0.513687,0.04711 -0.720623,-0.750726 -1.152652,-1.032585 -0.55205,-0.360161 -1.14399,-0.763649 -1.801018,-0.816461 -0.669696,-0.05383 -1.373586,0.175082 -1.945101,0.528298 -0.255589,0.157963 -0.300925,0.647291 -0.600339,0.672381 -0.612898,0.05136 -0.827273,-1.195685 -1.440812,-1.152648 z"
       id="path1"
       sodipodi:nodetypes="aaaaaaaaaaaaaaaaaaaaaaaaaaaaaaaaaaaaaaaaaaaaaaaaaaaaaaaaa" /><path
       style="fill:#262626;stroke:#262626;stroke-width:0.126;stroke-linecap:round;stroke-linejoin:round;stroke-dasharray:none;stroke-opacity:1;paint-order:stroke fill markers;fill-opacity:1"
       d="m 18.983827,33.586771 c 0.929224,-0.38933 2.042625,0.234391 3.02247,0 0.827179,-0.197871 1.424893,-1.165337 2.275343,-1.154652 0.977459,0.01228 1.830429,0.766082 2.580984,1.392375 0.834803,0.696593 1.597765,1.552709 2.03762,2.547025 0.435928,0.985438 0.697827,2.13132 0.509405,3.192272 -0.288007,1.62169 -1.160543,3.241174 -2.411182,4.312962 -1.109653,0.950964 -2.656539,1.368723 -4.109201,1.528215 -1.397214,0.153404 -2.886952,-0.01947 -4.177121,-0.577326 -1.174851,-0.507993 -2.329985,-1.313604 -2.98851,-2.411182 -0.80641,-1.344061 -1.337458,-3.118528 -0.882969,-4.618607 0.570984,-1.88458 2.326955,-3.450121 4.143161,-4.211082 z"
       id="path2"
       sodipodi:nodetypes="aaaaaaaaaaaa" /><path
       style="fill:#262626;stroke:#262626;stroke-width:0.126;stroke-linecap:round;stroke-linejoin:round;stroke-dasharray:none;stroke-opacity:1;paint-order:stroke fill markers;fill-opacity:1"
       d="m 37.797853,35.45459 c 0.192064,-0.51237 0.582659,-0.966784 1.035791,-1.273514 0.378037,-0.255897 0.925391,-0.157704 1.307473,-0.407522 0.664915,-0.434744 0.814409,-1.531643 1.562174,-1.799899 0.448437,-0.160874 0.934936,0.194073 1.409353,0.237722 1.031573,0.09491 2.087499,-0.130744 3.107373,0.05094 1.097918,0.195587 2.256501,0.447648 3.15831,1.103712 1.143353,0.831786 2.150811,2.026871 2.564006,3.379052 0.384348,1.257779 0.273894,2.720765 -0.220742,3.939399 -0.493425,1.215651 -1.515795,2.205604 -2.580987,2.97153 -0.879848,0.632654 -1.924887,1.157809 -3.005489,1.239552 -0.56945,0.04308 -1.09298,-0.407674 -1.664057,-0.407524 -0.641087,1.68e-4 -1.238163,0.57899 -1.867818,0.458464 -0.996496,-0.190745 -1.78566,-1.025313 -2.479104,-1.765937 -0.832024,-0.888632 -1.502419,-1.963433 -1.918758,-3.10737 -0.361912,-0.994392 -0.400053,-2.084742 -0.458465,-3.141332 -0.0272,-0.491966 -0.122006,-1.015906 0.05094,-1.477273 z"
       id="path3"
       sodipodi:nodetypes="aaaaaaaaaaaaaaaaa" /><path
       style="fill:#262626;stroke:#262626;stroke-width:0.126;stroke-linecap:round;stroke-linejoin:round;stroke-dasharray:none;stroke-opacity:1;paint-order:stroke fill markers;fill-opacity:1"
       d="m 33.522962,45.793903 0.408231,-2.425372 c 0.05403,-0.414234 1.104625,-1.584897 1.104625,-1.584897 0.366207,0.01201 0.785624,1.149638 1.080611,1.777006 0.88648,1.885334 2.041154,5.907341 2.041154,5.907341 0.135841,1.884799 -3.698091,5.282988 -3.698091,5.282988 -1.375394,-1.579156 -1.128639,-6.77183 -1.128639,-6.77183 0,0 -0.388045,5.013926 -1.440815,6.219518 -1.239552,-0.679207 -3.21782,-3.48197 -3.21782,-3.48197 -0.662227,-1.154651 -0.126503,-1.55963 -0.02402,-2.329317 0.416285,-3.12646 3.337888,-6.459654 3.337888,-6.459654 0,0 1.248713,1.080611 1.536876,3.866187 z"
       id="path4"
       sodipodi:nodetypes="cccacccccscc" /><path
       style="fill:none;stroke:#262626;stroke-width:0.426;stroke-linecap:round;stroke-linejoin:round;stroke-dasharray:none;stroke-opacity:1;paint-order:stroke fill markers"
       d="m 26.123987,62.979442 c 0,0 -1.09522,-2.479106 0.432996,-4.703508"
       id="path5"
       sodipodi:nodetypes="cc" /><path
       style="fill:#262626;stroke:#262626;stroke-width:0.126;stroke-linecap:round;stroke-linejoin:round;stroke-dasharray:none;stroke-opacity:1;paint-order:stroke fill markers;fill-opacity:1"
       d="m 28.136138,63.607708 c -0.645246,-0.373564 -1.273514,-1.765937 -1.273514,-1.765937 0.05094,-1.528215 2.003661,-2.411185 2.003661,-2.411185 1.765937,-0.322623 2.954549,1.867818 2.954549,1.867818 0.679207,0.950889 0.271682,2.767769 0.271682,2.767769 -0.543365,-0.305643 -1.562174,-1.799898 -3.956378,-0.458465 z"
       id="path6"
       sodipodi:nodetypes="cccccc" /><path
       style="fill:#262626;stroke:#262626;stroke-width:0.126;stroke-linecap:round;stroke-linejoin:round;stroke-dasharray:none;stroke-opacity:1;paint-order:stroke fill markers;fill-opacity:1"
       d="m 33.892415,63.811469 c -0.543365,-2.377223 0.764107,-4.431823 0.764107,-4.431823 0.730147,-1.188612 1.341434,-0.764106 1.341434,-0.764106 1.137671,2.699847 0.203761,4.805386 0.203761,4.805386 -0.764108,-0.730147 -2.309302,0.390543 -2.309302,0.390543 z"
       id="path7"
       sodipodi:nodetypes="ccccc" /><path
       style="fill:#262626;stroke:#262626;stroke-width:0.126;stroke-linecap:round;stroke-linejoin:round;stroke-dasharray:none;stroke-opacity:1;paint-order:stroke fill markers;fill-opacity:1"
       d="m 38.256318,63.064342 c -0.276156,-4.082309 0.577326,-5.416672 0.577326,-5.416672 1.957107,2.065168 1.358413,6.197759 1.358413,6.197759 -0.33619,0.03602 -0.413351,-0.921901 -0.509405,-0.933908 -0.252143,-0.492278 -1.426334,0.152821 -1.426334,0.152821 z"
       id="path8"
       sodipodi:nodetypes="ccccc" /><path
       d="m 23.618118,59.084296 c -0.246854,-0.77433 -1.312857,-1.099105 -1.560883,-1.87306 -0.328245,-1.024279 0.820598,-2.312306 0.240136,-3.21782 0,0 2.1345,1.891921 1.320747,5.09088 z"
       style="fill:#262626;stroke:#262626;stroke-width:0.126;stroke-linecap:round;stroke-linejoin:round;stroke-dasharray:none;stroke-opacity:1;paint-order:stroke fill markers;fill-opacity:1"
       id="path1-6"
       sodipodi:nodetypes="cscc" /><path
       style="fill:none;stroke:#262626;stroke-width:0.426;stroke-linecap:round;stroke-linejoin:round;stroke-dasharray:none;stroke-opacity:1;paint-order:stroke fill markers"
       d="m 11.718629,18.63454 c 0,0 -0.435653,2.862152 -0.09605,4.322446 1.494255,2.869648 1.728978,5.331015 1.728978,5.331015 0.781088,3.345093 2.20925,4.514553 2.20925,4.514553 0,0 0.880058,-2.384792 0.04803,-3.794146 1.426334,3.260192 -1.969114,6.771831 -1.969114,6.771831 -0.645246,1.324453 -0.09605,6.291558 -0.09605,6.291558 0.373564,3.429994 3.025711,5.42707 3.025711,5.42707 1.426334,1.681037 4.4185,0.09605 4.4185,0.09605 2.852668,-0.832028 4.706662,1.392787 4.706662,1.392787 1.239552,1.239552 1.632923,3.554011 1.632923,3.554011"
       id="path9"
       sodipodi:nodetypes="ccccccccccc" /><path
       style="fill:none;stroke:#262626;stroke-width:0.426;stroke-linecap:round;stroke-linejoin:round;stroke-dasharray:none;stroke-opacity:1;paint-order:stroke fill markers"
       d="m 52.842281,23.772235 c 0,0 0.577325,1.035789 0.10188,2.614945 -1.239552,1.98668 -0.916929,4.788407 -0.916929,4.788407 0.356584,0.865989 2.173462,5.263853 2.173462,5.263853 0.441484,2.716827 -2.377223,7.437313 -2.377223,7.437313 0.03396,1.358413 -2.818707,3.260191 -2.818707,3.260191 -0.798068,0.356584 -3.531875,-0.543365 -3.531875,-0.543365 -2.784748,-1.103711 -4.618606,1.256533 -4.618606,1.256533 -1.290493,1.324453 -1.460294,5.603454 -1.460294,5.603454"
       id="path10"
       sodipodi:nodetypes="ccccccccc" /><ellipse
       style="fill:#7c0000;stroke:#7c0000;stroke-width:0.126;stroke-linecap:round;stroke-linejoin:round;stroke-dasharray:none;stroke-opacity:1;paint-order:stroke fill markers;fill-opacity:1"
       id="path11"
       cx="44.640858"
       cy="38.3582"
       rx="1.9527192"
       ry="1.7829176" /><ellipse
       style="fill:#7c0000;stroke:#7c0000;stroke-width:0.126;stroke-linecap:round;stroke-linejoin:round;stroke-dasharray:none;stroke-opacity:1;paint-order:stroke fill markers;fill-opacity:1"
       id="path12"
       cx="21.836496"
       cy="39.22419"
       rx="1.833858"
       ry="1.8678184" /></g></svg>
