<?xml version="1.0" encoding="UTF-8" standalone="no"?>
<!-- Created with Inkscape (http://www.inkscape.org/) -->

<svg
   width="250"
   height="250"
   viewBox="0 0 66.145832 66.145833"
   version="1.1"
   id="svg1"
   xml:space="preserve"
   inkscape:version="1.4.3 (0d15f75, 2025-12-25)"
   sodipodi:docname="meşale.svg"
   xmlns:inkscape="http://www.inkscape.org/namespaces/inkscape"
   xmlns:sodipodi="http://sodipodi.sourceforge.net/DTD/sodipodi-0.dtd"
   xmlns="http://www.w3.org/2000/svg"
   xmlns:svg="http://www.w3.org/2000/svg"><sodipodi:namedview
     id="namedview1"
     pagecolor="#505050"
     bordercolor="#ffffff"
     borderopacity="1"
     inkscape:showpageshadow="0"
     inkscape:pageopacity="0"
     inkscape:pagecheckerboard="1"
     inkscape:deskcolor="#505050"
     inkscape:document-units="mm"
     inkscape:zoom="1.3772587"
     inkscape:cx="247.59328"
     inkscape:cy="146.30512"
     inkscape:window-width="1920"
     inkscape:window-height="991"
     inkscape:window-x="-9"
     inkscape:window-y="-9"
     inkscape:window-maximized="1"
     inkscape:current-layer="layer1" /><defs
     id="defs1" /><g
     inkscape:label="Layer 1"
     inkscape:groupmode="layer"
     id="layer1"><path
       style="fill:#ff9b08;stroke:#c06f00;stroke-width:0.225954;stroke-linecap:round;stroke-linejoin:round;stroke-opacity:1;paint-order:stroke fill markers;fill-opacity:1"
       d="m 33.315089,29.137967 c 0,0 -3.09039,-4.754446 -3.294152,-7.369392 0,0 -0.441484,-6.995829 1.528215,-9.203251 2.784748,-4.2450419 2.105541,-5.1959313 2.105541,-5.1959313 0,0 1.120692,0.067921 -0.271682,4.9582093 -0.305643,1.188612 1.052769,1.731977 1.052769,1.731977 1.324453,-0.441484 1.528214,-1.731977 1.528214,-1.731977 -0.305643,-4.2790023 0.373566,-4.8902887 0.373566,-4.8902887 0.339603,-1.2565324 1.22257,-1.2225721 1.22257,-1.2225721 -0.713167,2.0376201 0.169802,3.1922717 0.169802,3.1922717 1.596136,1.9696991 0.849008,4.0752401 0.849008,4.0752401 -0.407524,0.747127 -0.407524,2.445144 -0.407524,2.445144 1.188612,1.154651 2.071581,-0.475445 2.071581,-0.475445 -0.611286,-1.765937 0.781088,-3.022469 0.781088,-3.022469 1.799898,-2.07158 0.679206,-4.0752405 0.679206,-4.0752405 -0.950889,-1.6640564 0.407525,-3.633756 0.407525,-3.633756 0,0 0.407524,-1.6300961 0.237722,-1.5282151 0,0 0.271681,2.8526681 0.475443,4.5167245 -0.101881,0.5433654 1.01881,1.1886118 1.01881,1.1886118 0,0 0.475446,-0.8829688 0.475446,-1.0867308 0,0 0.339603,3.8714791 0.781087,3.8035581 0.509405,0.747127 1.052772,-0.237723 1.052772,-0.237723 0,0 -0.280173,-3.6762061 -0.365074,-3.8884582 0,0 -1.231063,-2.326283 -0.449975,-2.6998467 0.373564,2.2413821 1.90178,3.9733593 1.90178,3.9733593 -0.339603,0.4414844 0.169801,2.0715806 0.169801,2.0715806 1.358413,1.188612 0.713166,2.648906 0.713166,2.648906 0,0 -0.921755,1.039704 -0.441483,1.664057 0.480272,0.456258 1.12069,-0.849009 1.12069,-0.849009 0.660374,0.132075 0.373565,2.547025 0.373565,2.547025 0,0 -0.264382,2.202595 -2.173462,2.682867 -1.512856,0.792448 -1.833859,2.07158 -1.833859,2.07158 0.07204,1.512856 -1.969698,3.226232 -1.969698,3.226232 -0.144082,0.408231 -1.664058,1.664057 -1.664058,1.664057 z"
       id="path8"
       sodipodi:nodetypes="ccccccccccccccccccccccccccccccccccc" /><path
       style="display:inline;fill:#66441f;stroke:#34210f;stroke-width:0.225954;stroke-linecap:round;stroke-linejoin:round;stroke-opacity:1;paint-order:stroke fill markers;fill-opacity:1"
       d="m 17.20091,63.77751 c 0,0 0.926168,0.951802 1.358413,-0.152823 1.008571,-0.67238 0.773691,-5.518484 7.929739,-13.635075 2.305304,-1.969114 2.716826,-4.211081 2.716826,-4.211081 2.161223,-2.161223 2.284926,-14.303714 9.440974,-16.368882 0,0 -2.700933,0.02413 -4.95821,-2.377223 0,0 1.078148,0.54488 -5.501574,11.206911 0,0 -2.29765,2.810055 -2.105541,4.346924 0,0 -0.251547,1.954974 -4.958209,8.150479 -3.409929,4.274418 -5.09405,9.169292 -5.09405,9.169292 0,0 -0.641394,2.094473 1.171632,3.871478 z"
       id="path2"
       sodipodi:nodetypes="ccccccccccc" /><g
       id="g7"
       style="display:inline"><path
         style="fill:#d7d7d8;stroke:#76746f;stroke-width:0.225954;stroke-linecap:round;stroke-linejoin:round;stroke-opacity:1;paint-order:stroke fill markers;fill-opacity:1"
         d="m 38.926018,18.778622 c -6.867885,3.962241 -5.282988,8.260672 -5.282988,8.260672 2.065168,2.473399 4.778703,2.377345 4.778703,2.377345 2.617481,-1.104625 3.674078,-3.986254 3.674078,-3.986254 0.07204,-2.185236 1.104625,-3.554011 1.104625,-3.554011 0.360204,-0.504285 -0.04803,-0.936529 -0.04803,-0.936529 -1.825032,-2.497413 -4.226388,-2.161223 -4.226388,-2.161223 z"
         id="path3"
         sodipodi:nodetypes="ccccccc" /><path
         style="fill:none;stroke:#76746f;stroke-width:0.225954;stroke-linecap:round;stroke-linejoin:round;stroke-opacity:1;paint-order:stroke fill markers"
         d="m 34.675614,22.524741 c 0.264149,3.55401 3.025712,5.258974 4.394486,6.603735"
         id="path4"
         sodipodi:nodetypes="cc" /><path
         style="fill:none;stroke:#76746f;stroke-width:0.225954;stroke-linecap:round;stroke-linejoin:round;stroke-opacity:1;paint-order:stroke fill markers"
         d="m 36.572687,20.387532 c 0.504285,1.728978 -0.456258,2.713535 4.418499,7.03598"
         id="path5"
         sodipodi:nodetypes="cc" /><path
         style="fill:none;stroke:#76746f;stroke-width:0.225954;stroke-linecap:round;stroke-linejoin:round;stroke-opacity:1;paint-order:stroke fill markers"
         d="m 38.974045,18.754608 c -0.480272,3.746119 2.953671,6.939926 2.953671,6.939926"
         id="path6"
         sodipodi:nodetypes="cc" /><path
         style="fill:none;stroke:#76746f;stroke-width:0.225954;stroke-linecap:round;stroke-linejoin:round;stroke-opacity:1;paint-order:stroke fill markers"
         d="m 42.143838,24.709977 c 0,-2.401358 -2.305304,-4.946798 -1.801019,-5.76326"
         id="path7"
         sodipodi:nodetypes="cc" /></g><path
       style="fill:#ff9b08;stroke:#c06f00;stroke-width:0.225954;stroke-linecap:round;stroke-linejoin:round;stroke-opacity:1;paint-order:stroke fill markers;fill-opacity:1"
       d="m 37.761359,0.87649578 c 0.732414,1.63292372 -0.492278,4.49054012 -0.492278,4.49054012 0,0 3.806153,-1.7169712 0.492278,-4.49054012 z"
       id="path9"
       sodipodi:nodetypes="ccc" /><path
       style="fill:#f9df00;stroke:#a69500;stroke-width:0.225954;stroke-linecap:round;stroke-linejoin:round;stroke-opacity:1;paint-order:stroke fill markers;fill-opacity:1"
       d="m 32.802554,23.677393 c 0,0 -1.873059,-0.864489 -1.080611,-4.874757 0,0 1.296734,-1.368775 0.984557,-3.890201 0,0 1.464829,0.480271 1.056598,2.929657 0,0 -0.648367,1.416802 0.480271,1.680951 0,0 1.128639,0.288163 1.392788,-1.849046 -0.456258,-3.289861 0.93653,-3.938228 0.93653,-3.938228 m 0,0 c -0.432245,3.890201 1.801019,4.106323 1.801019,4.106323 l -5.571152,5.835301"
       id="path10"
       sodipodi:nodetypes="cccccccccc" /><path
       style="fill:#f9df00;stroke:#a69500;stroke-width:0.225954;stroke-linecap:round;stroke-linejoin:round;stroke-opacity:1;paint-order:stroke fill markers;fill-opacity:1"
       d="m 40.67901,17.746038 c 0.792448,-0.984557 1.969113,-3.193807 1.969113,-3.193807 0.816462,-1.27272 0.360204,-3.337888 0.360204,-3.337888 1.248706,0.744421 1.488842,3.529997 1.488842,3.529997 0.528299,0.984557 1.27272,0.456258 1.27272,0.456258 0.384217,-0.792448 0.792448,-1.656937 0.792448,-1.656937 0,0 -0.192092,2.425371 0.02403,2.61748 1.368774,1.032584 0.240135,1.777006 0.240135,1.777006 -3.121766,1.656937 -2.545439,2.977684 -2.545439,2.977684 z"
       id="path11"
       sodipodi:nodetypes="cccccccccc" /></g></svg>
