<?xml version="1.0" encoding="UTF-8" standalone="no"?>
<!-- Created with Inkscape (http://www.inkscape.org/) -->

<svg
   width="250"
   height="250"
   viewBox="0 0 250 250"
   version="1.1"
   id="svg1"
   xml:space="preserve"
   inkscape:version="1.4.3 (0d15f75, 2025-12-25)"
   sodipodi:docname="parşömen.svg"
   xmlns:inkscape="http://www.inkscape.org/namespaces/inkscape"
   xmlns:sodipodi="http://sodipodi.sourceforge.net/DTD/sodipodi-0.dtd"
   xmlns="http://www.w3.org/2000/svg"
   xmlns:svg="http://www.w3.org/2000/svg"><sodipodi:namedview
     id="namedview1"
     pagecolor="#505050"
     bordercolor="#ffffff"
     borderopacity="1"
     inkscape:showpageshadow="0"
     inkscape:pageopacity="0"
     inkscape:pagecheckerboard="1"
     inkscape:deskcolor="#505050"
     inkscape:document-units="px"
     inkscape:zoom="2"
     inkscape:cx="144.25"
     inkscape:cy="122.25"
     inkscape:window-width="1920"
     inkscape:window-height="1009"
     inkscape:window-x="-8"
     inkscape:window-y="-8"
     inkscape:window-maximized="1"
     inkscape:current-layer="layer1" /><defs
     id="defs1" /><g
     inkscape:label="Layer 1"
     inkscape:groupmode="layer"
     id="layer1"><g
       id="g17"
       inkscape:label="üst"><path
         style="display:inline;fill:#d48c42;fill-opacity:1;stroke:#af5700;stroke-width:0.854173;stroke-linecap:round;stroke-linejoin:round;stroke-opacity:1;paint-order:stroke fill markers"
         d="M 88.26101,124.24536 37.115242,68.996283 c 0,0 -0.626362,-9.206917 1.396994,-13.107079 1.269079,-2.446241 3.282064,-5.68846 6.216389,-5.450542 5.472119,-1.030979 5.710037,-6.027262 5.710037,-6.027262 11.975217,-12.530359 22.998761,-15.385378 22.998761,-15.385378 3.727385,0.753408 7.613383,-4.123915 7.613383,-4.123915 13.799257,-8.247831 21.254024,-3.172243 21.254024,-3.172243 5.9083,1.665428 6.66171,8.247831 6.66171,8.247831 l 24.13017,78.264045 c 0.95332,7.62659 -10.01369,11.82765 -10.01369,11.82765 -5.60779,4.65446 -26.805449,5.39282 -26.805449,5.39282 -1.738414,0.44862 -8.016561,-1.21685 -8.016561,-1.21685 z"
         id="path1"
         sodipodi:nodetypes="ccacccccccccc" /><path
         style="display:inline;fill:none;stroke:#af5700;stroke-width:0.854173;stroke-linecap:round;stroke-linejoin:round;stroke-opacity:1;paint-order:stroke fill markers"
         d="M 100.71871,124.98637 C 75.816603,91.360595 74.230483,76.292441 74.230483,76.292441 98.339529,57.576208 95.906549,56.37486 103.57373,46.949195 c 6.04444,-7.430742 3.42711,-21.800088 3.42711,-21.800088"
         id="path2"
         sodipodi:nodetypes="ccsc" /><path
         style="fill:none;stroke:#af5700;stroke-width:0.854173;stroke-linecap:round;stroke-linejoin:round;stroke-opacity:1;paint-order:stroke fill markers"
         d="m 106.74597,39.97026 c -1.66543,-6.582404 -7.296156,-12.133829 -7.296156,-12.133829 -6.820322,-2.22057 -16.892193,4.203222 -16.892193,4.203222 0,0 -23.712515,13.32342 -30.057001,22.840149 -1.903346,5.710037 5.551425,13.799256 5.551425,13.799256 4.44114,1.744734 6.423792,4.679059 6.423792,4.679059 0,0 2.379182,-4.282528 1.427509,-5.551425 L 87.950434,51.311029 c 0,0 11.578686,-10.70632 11.261462,-13.164808 1.824044,-3.806691 2.299874,-8.009914 2.299874,-8.009914"
         id="path3"
         sodipodi:nodetypes="cccccccccc" /><path
         style="fill:none;stroke:#af5700;stroke-width:0.854173;stroke-linecap:round;stroke-linejoin:round;stroke-opacity:1;paint-order:stroke fill markers"
         d="m 52.421314,59.400248 c 0,0 7.49905,0.575431 11.023544,-0.475836 6.838267,-2.039682 13.451147,-5.802169 18.399007,-10.944238 2.378593,-2.471956 7.058242,-6.820323 4.916978,-9.040893 1.506815,-0.475836 5.710037,-1.824039 8.565056,4.758365"
         id="path4"
         sodipodi:nodetypes="caacc" /><path
         style="fill:none;stroke:#af5700;stroke-width:0.854173;stroke-linecap:round;stroke-linejoin:round;stroke-opacity:1;paint-order:stroke fill markers"
         d="m 86.919455,39.018587 c 0,0 -3.013631,-1.506815 -8.406444,2.22057 l -11.10285,7.930608 c -2.379182,1.665428 -0.713754,3.727385 -0.713754,3.727385 l 2.696406,3.885998"
         id="path5"
         sodipodi:nodetypes="ccccc" /><path
         style="fill:none;stroke:#af5700;stroke-width:0.854173;stroke-linecap:round;stroke-linejoin:round;stroke-opacity:1;paint-order:stroke fill markers"
         d="M 57.893433,68.599752 37.273854,68.758364"
         id="path6" /></g><g
       id="g18"
       inkscape:label="alt"><path
         style="display:inline;fill:#d48c42;fill-opacity:1;stroke:#af5700;stroke-width:0.854173;stroke-linecap:round;stroke-linejoin:round;stroke-opacity:1;paint-order:stroke fill markers"
         d="m 114.56065,180.49537 16.32508,44.71332 c 2.35527,4.8227 7.06581,4.37407 7.06581,4.37407 10.99126,3.14036 28.26324,-8.18736 28.26324,-8.18736 l 3.25252,4.37407 c 2.80389,1.57018 5.60778,-0.44862 5.60778,-0.44862 8.97246,-3.36467 10.76695,-10.43049 10.76695,-10.43049 l 0.11216,-2.57958 4.26192,-0.33646 c 9.8697,-5.60779 14.67227,-22.7704 14.67227,-22.7704 l -57.98451,-58.43313 c 0,0 -14.33581,15.48028 -32.05641,16.9383 l 7.29012,21.98252 c 1.45802,3.25252 -2.46742,4.0376 -2.46742,4.0376 0.22431,3.92545 -0.61494,6.33594 -0.61494,6.33594 -0.89725,0.22431 -4.49457,0.43022 -4.49457,0.43022 z"
         id="path7"
         sodipodi:nodetypes="cccccccccccccccc" /><path
         style="display:inline;fill:none;stroke:#af5700;stroke-width:0.854173;stroke-linecap:round;stroke-linejoin:round;stroke-opacity:1;paint-order:stroke fill markers"
         d="m 116.5298,152.75609 49.3331,68.82109"
         id="path8"
         sodipodi:nodetypes="cc" /></g><g
       id="g16"
       style="display:inline"
       inkscape:label="kurdele"><path
         d="m 114.46165,180.20294 c 0,0 3.4835,-0.11216 4.38075,-0.33647 0,0 0.97896,-2.07302 0.75465,-5.99847 0,0 3.92544,-0.78508 2.46742,-4.0376 l -7.29012,-21.98252 c 17.7206,-1.45802 32.55074,-17.05992 32.55074,-17.05992 0,0 -0.42656,-6.98387 -5.28792,-9.37036 0.0549,-0.51392 0.0942,-1.01084 0.11879,-1.49132 0.64815,-12.65857 -8.86228,-13.9015 -8.86228,-13.9015 0.95332,7.62659 -10.15118,14.11648 -10.15118,14.11648 -5.60779,4.65446 -26.805449,5.39282 -26.805449,5.39282 -1.738414,0.44862 -8.723668,-0.95168 -8.723668,-0.95168 0,0 -2.495404,3.22715 2.63112,6.93946 0,0 -2.12132,3.97748 5.126524,8.04334 0,0 -1.237433,9.45755 7.513013,9.98788 0,0 -1.76777,27.312 4.15425,30.49398 z"
         style="fill:#55158f;fill-opacity:1;stroke:#340d58;stroke-width:0.854;stroke-linecap:round;stroke-linejoin:round;stroke-dasharray:none;stroke-opacity:1;paint-order:stroke fill markers"
         id="path1-4"
         sodipodi:nodetypes="cccccccsccccccccc" /><path
         style="fill:none;stroke:#340d58;stroke-width:0.854;stroke-linecap:round;stroke-linejoin:round;stroke-dasharray:none;stroke-opacity:1;paint-order:stroke fill markers"
         d="m 126.02616,118.16182 c 0,0 -12.49133,9.38257 -13.33102,10.88517 -9.28078,-2.2981 -7.07106,1.85615 -7.07106,1.85615 -3.40295,-1.5026 -5.87783,0.83969 -5.87783,0.83969 -6.231378,-1.59099 -9.722718,-0.17677 -9.722718,-0.17677"
         id="path9"
         sodipodi:nodetypes="ccccc" /><path
         style="fill:none;stroke:#340d58;stroke-width:0.854;stroke-linecap:round;stroke-linejoin:round;stroke-dasharray:none;stroke-opacity:1;paint-order:stroke fill markers"
         d="m 142.15608,121.43454 c 0,0 -8.02676,9.55699 -25.1741,12.60639"
         id="path10"
         sodipodi:nodetypes="cc" /><path
         style="fill:none;stroke:#340d58;stroke-width:0.854;stroke-linecap:round;stroke-linejoin:round;stroke-dasharray:none;stroke-opacity:1;paint-order:stroke fill markers"
         d="m 100.45336,138.76971 c 0,0 -3.35876,-1.10486 -5.170721,0.83968"
         id="path11"
         sodipodi:nodetypes="cc" /><path
         style="fill:none;stroke:#340d58;stroke-width:0.854;stroke-linecap:round;stroke-linejoin:round;stroke-dasharray:none;stroke-opacity:1;paint-order:stroke fill markers"
         d="m 119.41266,174.03666 c -9.72272,-17.14734 -5.83363,-32.35014 -5.83363,-32.35014 1.375,-1.1875 0.7071,-2.65165 0.7071,-2.65165 m -10.16465,3.27037 c -1.09375,0.90625 -1.24817,7.38893 -1.24817,7.38893"
         id="path12"
         sodipodi:nodetypes="ccccc" /><path
         style="fill:none;stroke:#340d58;stroke-width:0.854;stroke-linecap:round;stroke-linejoin:round;stroke-dasharray:none;stroke-opacity:1;paint-order:stroke fill markers"
         d="m 108.31992,142.30524 c -1.85615,15.11441 0.83969,22.45064 0.83969,22.45064"
         id="path13"
         sodipodi:nodetypes="cc" /><path
         style="fill:none;stroke:#340d58;stroke-width:0.854;stroke-linecap:round;stroke-linejoin:round;stroke-dasharray:none;stroke-opacity:1;paint-order:stroke fill markers"
         d="m 114.33033,140.62586 c 0,0 5.28943,3.03423 25.08842,-3.10876"
         id="path14"
         sodipodi:nodetypes="cc" /><path
         style="fill:none;stroke:#340d58;stroke-width:0.854;stroke-linecap:round;stroke-linejoin:round;stroke-dasharray:none;stroke-opacity:1;paint-order:stroke fill markers"
         d="m 99.613668,131.65444 c -1.06066,4.28683 0.839692,7.11527 0.839692,7.11527 0.7955,2.2539 3.84489,3.57972 3.84489,3.57972 4.94975,1.59099 7.46882,-3.49134 7.46882,-3.49134 -5.17072,-3.40295 -6.23138,-7.99914 -6.23138,-7.99914 -2.51907,-1.41421 -5.922022,0.79549 -5.922022,0.79549 z"
         id="path15"
         sodipodi:nodetypes="cccccc" /><path
         style="fill:none;stroke:#340d58;stroke-width:0.854;stroke-linecap:round;stroke-linejoin:round;stroke-dasharray:none;stroke-opacity:1;paint-order:stroke fill markers"
         d="m 112.69514,129.04699 c 3.18198,1.19324 4.33103,5.12652 4.33103,5.12652 0.7955,2.78423 -3.22617,5.08233 -3.22617,5.08233 -0.7955,0.30936 -2.03293,-0.48613 -2.03293,-0.48613 -5.78944,-3.8007 -6.14299,-7.91076 -6.14299,-7.91076 -1.45841,-4.33103 7.07106,-1.81196 7.07106,-1.81196 z"
         id="path16"
         sodipodi:nodetypes="cccccc" /></g></g></svg>
