<?xml version="1.0" encoding="UTF-8" standalone="no"?>
<!-- Created with Inkscape (http://www.inkscape.org/) -->

<svg
   width="250"
   height="250"
   viewBox="0 0 66.145833 66.145833"
   version="1.1"
   id="svg1"
   xml:space="preserve"
   inkscape:version="1.4.3 (0d15f75, 2025-12-25)"
   sodipodi:docname="Sütun.svg"
   xmlns:inkscape="http://www.inkscape.org/namespaces/inkscape"
   xmlns:sodipodi="http://sodipodi.sourceforge.net/DTD/sodipodi-0.dtd"
   xmlns="http://www.w3.org/2000/svg"
   xmlns:svg="http://www.w3.org/2000/svg"><sodipodi:namedview
     id="namedview1"
     pagecolor="#505050"
     bordercolor="#ffffff"
     borderopacity="1"
     inkscape:showpageshadow="0"
     inkscape:pageopacity="0"
     inkscape:pagecheckerboard="1"
     inkscape:deskcolor="#505050"
     inkscape:document-units="mm"
     inkscape:zoom="2.8284271"
     inkscape:cx="126.57211"
     inkscape:cy="132.40574"
     inkscape:window-width="1920"
     inkscape:window-height="991"
     inkscape:window-x="-9"
     inkscape:window-y="-9"
     inkscape:window-maximized="1"
     inkscape:current-layer="layer1" /><defs
     id="defs1" /><g
     inkscape:label="Layer 1"
     inkscape:groupmode="layer"
     id="layer1"><g
       id="g14"
       transform="matrix(0.28363918,0,0,0.28363918,-2.2819624,-4.9354694)"><path
         style="fill:#d0d0aa;fill-opacity:1;stroke:#d0d0aa;stroke-width:0.326001;stroke-linecap:round;stroke-linejoin:round;stroke-dasharray:none;stroke-opacity:1;paint-order:stroke fill markers"
         d="M 74.274201,97.566739 173.87152,96.688848 175.48917,250.32464 72.777492,249.76337 Z"
         id="path14"
         sodipodi:nodetypes="ccccc" /><path
         style="display:inline;fill:#d0d0aa;fill-opacity:1;stroke:#ffffff;stroke-width:0.326001;stroke-linecap:round;stroke-linejoin:round;stroke-dasharray:none;stroke-opacity:1;paint-order:stroke fill markers"
         d="m 175.50182,250.43448 -0.5549,-124.73936 c 0,0 5.39504,-2.10669 3.34294,-7.64402 l -2.30777,0.0205 -2.06517,-19.691131 M 74.253001,98.344449 C 61.721637,107.58165 59.329018,108.21166 50.812742,108.56222 42.193315,108.91702 32.761583,105.9424 26.318887,100.2055 19.035078,93.719626 14.152265,83.534634 13.735769,73.79056 13.284477,63.232429 18.246639,52.337887 24.878072,44.109771 29.397843,38.501753 43.032341,32.391143 43.032341,32.391143 c 1.176666,-2.785576 -2.401359,-6.43564 -2.401359,-6.43564 -0.984557,-1.224693 -5.090879,-5.282989 -5.090879,-5.282989 -1.296734,-1.536869 0.192109,-2.305304 0.192109,-2.305304 l 90.056698,0.09005 86.59777,-0.09005 c 0,0 1.48885,0.768435 0.19211,2.305304 0,0 -4.10632,4.058296 -5.09088,5.282989 0,0 -3.57802,3.650064 -2.40136,6.43564 0,0 13.6345,6.11061 18.15427,11.718628 6.63144,8.228116 11.5936,19.122658 11.14231,29.680789 -0.4165,9.744074 -5.29931,19.929066 -12.58312,26.41495 -6.4427,5.7369 -15.87434,8.70939 -24.49386,8.35671 -8.49599,-0.34762 -10.85786,-0.94455 -23.39116,-10.183383 M 72.617075,250.43448 73.171981,125.69512 c 0,0 -5.39504,-2.10669 -3.342948,-7.64402 l 2.30777,0.0205 2.114959,-19.728563"
         id="path3-1"
         sodipodi:nodetypes="ccccccaaaacccccccccaaaacccccc" /><path
         style="display:inline;fill:none;fill-opacity:1;stroke:#7a7a44;stroke-width:0.826;stroke-linecap:round;stroke-linejoin:round;stroke-dasharray:none;stroke-opacity:1;paint-order:stroke fill markers"
         d="m 175.50182,250.43448 -0.5549,-124.73936 c 0,0 5.39504,-2.10669 3.34294,-7.64402 l -2.30777,0.0205 -2.06517,-19.691131 M 74.253001,98.344449 C 61.721637,107.58165 59.329018,108.21166 50.812742,108.56222 42.193315,108.91702 32.761583,105.9424 26.318887,100.2055 19.035078,93.719626 14.152265,83.534634 13.735769,73.79056 13.284477,63.232429 18.246639,52.337887 24.878072,44.109771 29.397843,38.501753 43.032341,32.391143 43.032341,32.391143 c 1.176666,-2.785576 -2.401359,-6.43564 -2.401359,-6.43564 -0.984557,-1.224693 -5.090879,-5.282989 -5.090879,-5.282989 -1.296734,-1.536869 0.192109,-2.305304 0.192109,-2.305304 l 90.056698,0.09005 86.59777,-0.09005 c 0,0 1.48885,0.768435 0.19211,2.305304 0,0 -4.10632,4.058296 -5.09088,5.282989 0,0 -3.57802,3.650064 -2.40136,6.43564 0,0 13.6345,6.11061 18.15427,11.718628 6.63144,8.228116 11.5936,19.122658 11.14231,29.680789 -0.4165,9.744074 -5.29931,19.929066 -12.58312,26.41495 -6.4427,5.7369 -15.87434,8.70939 -24.49386,8.35671 -8.49599,-0.34762 -10.85786,-0.94455 -23.39116,-10.183383 -12.96926,-16.042705 -9.95491,-26.88124 -4.85937,-38.921205 3.1098,-7.347966 11.25473,-13.036104 19.11482,-14.40815 9.04048,-1.578095 19.68076,0.508601 26.22283,6.723803 6.39479,6.075284 9.62102,16.615967 7.87645,25.262289 -1.42463,7.060645 -7.29272,13.718313 -13.92787,16.521345 -5.82502,2.46079 -13.66122,2.162811 -18.92271,-1.34476 -5.63541,-3.756845 -9.47997,-11.390698 -9.12516,-18.154269 0.26707,-5.091023 3.62175,-10.75698 8.26067,-12.87128 5.44703,-2.482614 13.71222,-1.807375 17.77006,2.593467 3.74077,4.056971 4.51062,12.217625 1.05659,16.521345 -2.73802,3.411573 -9.29213,4.389589 -12.96733,2.017141 -3.1261,-2.017989 -4.38169,-7.312281 -2.97769,-10.758086 0.76876,-1.886763 3.46246,-3.988365 5.28299,-3.073738 1.52604,0.766675 0.57633,5.090879 0.57633,5.090879 M 72.617075,250.43448 73.171981,125.69512 c 0,0 -5.39504,-2.10669 -3.342948,-7.64402 l 2.30777,0.0205 2.114959,-19.728563 c 12.966092,-16.042485 9.818869,-26.871075 4.708435,-38.885405 -3.123136,-7.342308 -11.25473,-13.036104 -19.11482,-14.40815 -9.04048,-1.578095 -19.68076,0.508601 -26.22283,6.723803 -6.39479,6.075284 -9.62102,16.615967 -7.87645,25.262289 1.42463,7.060645 7.29272,13.718313 13.92787,16.521345 5.82502,2.46079 13.66122,2.162811 18.92271,-1.34476 5.63541,-3.756845 9.47997,-11.390698 9.12516,-18.154269 -0.26707,-5.091023 -3.62175,-10.75698 -8.26067,-12.87128 -5.44703,-2.482614 -13.71222,-1.807375 -17.77006,2.593467 -3.74077,4.056971 -4.51062,12.217625 -1.05659,16.521345 2.73802,3.411573 9.29213,4.389589 12.96733,2.017141 3.1261,-2.017989 4.38169,-7.312281 2.97769,-10.758086 -0.76876,-1.886763 -3.46246,-3.988365 -5.28299,-3.073738 -1.52604,0.766675 -0.57633,5.090879 -0.57633,5.090879"
         id="path13"
         sodipodi:nodetypes="ccccccaaaacccccccccaaaacasaaaaaaaaaaaccccccasaaaaaaaaaaac" /><path
         style="fill:none;stroke:#7a7a44;stroke-width:0.826;stroke-linecap:round;stroke-linejoin:round;stroke-dasharray:none;stroke-opacity:1;paint-order:stroke fill markers"
         d="m 72.131753,117.9782 103.918627,0.0679"
         id="path3" /><path
         style="fill:#000000;fill-opacity:1;stroke:#7a7a44;stroke-width:0.826;stroke-linecap:round;stroke-linejoin:round;stroke-dasharray:none;stroke-opacity:1;paint-order:stroke fill markers"
         d="M 43.032341,32.322283 205.02797,32.37031"
         id="path4" /><path
         style="fill:none;stroke:#7a7a44;stroke-width:0.826;stroke-linecap:round;stroke-linejoin:round;stroke-dasharray:none;stroke-opacity:1;paint-order:stroke fill markers"
         d="m 65.087499,46.566666 c 0,0 65.874561,25.462471 120.691551,-1.104119"
         id="path5" /><path
         style="fill:none;stroke:#7a7a44;stroke-width:0.826;stroke-linecap:round;stroke-linejoin:round;stroke-dasharray:none;stroke-opacity:1;paint-order:stroke fill markers"
         d="m 83.254457,74.46129 c 0,0 56.313693,-7.10937 81.570653,0.374176"
         id="path6" /><path
         style="fill:none;stroke:#7a7a44;stroke-width:0.826;stroke-linecap:round;stroke-linejoin:round;stroke-dasharray:none;stroke-opacity:1;paint-order:stroke fill markers"
         d="m 83.451285,79.05361 c 0,0 56.313695,-7.10937 81.570655,0.374176"
         id="path6-7" /><g
         id="g13"><path
           id="path11"
           style="fill:none;stroke:#7a7a44;stroke-width:0.826;stroke-linecap:round;stroke-linejoin:round;stroke-dasharray:none;stroke-opacity:1;paint-order:stroke fill markers"
           d="m 154.84502,249.79737 -0.54042,-118.2761 c -0.14355,-3.51654 1.65734,-5.6106 3.87886,-5.6106 2.22151,0 4.0224,2.09407 3.89732,5.62714 l 0.2718,118.29263"
           sodipodi:nodetypes="ccscc" /><path
           style="fill:none;stroke:#7a7a44;stroke-width:0.826;stroke-linecap:round;stroke-linejoin:round;stroke-dasharray:none;stroke-opacity:1;paint-order:stroke fill markers"
           d="M 85.094249,249.92967 84.70583,132.43942 c 0.0085,-2.53351 -1.527886,-4.46772 -3.423062,-4.46772 -1.895175,0 -3.431518,1.93422 -3.397248,4.32007 l 0.431146,117.3426"
           id="path13-7"
           sodipodi:nodetypes="ccscc" /><path
           style="fill:none;stroke:#7a7a44;stroke-width:0.826;stroke-linecap:round;stroke-linejoin:round;stroke-dasharray:none;stroke-opacity:1;paint-order:stroke fill markers"
           d="M 94.420808,249.8966 94.010495,132.16495 c -0.01344,-2.77028 -1.734504,-4.70075 -3.857541,-4.70075 -2.123037,0 -3.844098,1.93047 -3.789943,4.73382 l 0.45103,117.76472"
           id="path13-6"
           sodipodi:nodetypes="ccscc" /><path
           style="fill:none;stroke:#7a7a44;stroke-width:0.826;stroke-linecap:round;stroke-linejoin:round;stroke-dasharray:none;stroke-opacity:1;paint-order:stroke fill markers"
           d="M 96.636697,249.92966 96.236799,131.75124 c -0.003,-3.2122 1.10496,-5.2793 3.481463,-5.2793 2.376498,0 4.303038,1.92654 4.331438,5.20903 l 0.42528,118.2487"
           id="path13-60"
           sodipodi:nodetypes="ccscc" /><path
           style="fill:none;stroke:#7a7a44;stroke-width:0.826;stroke-linecap:round;stroke-linejoin:round;stroke-dasharray:none;stroke-opacity:1;paint-order:stroke fill markers"
           d="m 107.94763,249.8966 -0.4778,-118.13862 c -0.0809,-3.37907 1.80372,-5.47313 4.12856,-5.47313 2.32484,0 4.20949,2.09407 4.16544,5.48966 l 0.35281,118.15515"
           id="path13-61"
           sodipodi:nodetypes="ccscc" /><path
           style="fill:none;stroke:#7a7a44;stroke-width:0.826;stroke-linecap:round;stroke-linejoin:round;stroke-dasharray:none;stroke-opacity:1;paint-order:stroke fill markers"
           d="m 120.25076,249.86352 -0.26835,-118.07531 c 0.12852,-3.26408 1.97129,-5.31626 4.24447,-5.31626 2.27318,0 4.11595,2.05218 3.93944,5.34934 l 0.22038,118.10837"
           id="path13-618"
           sodipodi:nodetypes="ccscc" /><path
           style="fill:none;stroke:#7a7a44;stroke-width:0.826;stroke-linecap:round;stroke-linejoin:round;stroke-dasharray:none;stroke-opacity:1;paint-order:stroke fill markers"
           d="m 132.71924,249.96275 -0.51576,-118.12492 c -0.11889,-3.52035 1.76576,-5.74006 4.0906,-5.74006 2.32484,0 4.2095,2.2197 4.13726,5.69044 l 0.32463,118.0753"
           id="path13-3"
           sodipodi:nodetypes="ccscc" /><path
           style="fill:none;stroke:#7a7a44;stroke-width:0.826;stroke-linecap:round;stroke-linejoin:round;stroke-dasharray:none;stroke-opacity:1;paint-order:stroke fill markers"
           d="m 144.42707,249.8966 -0.56992,-118.1854 c -0.17304,-3.27085 1.54408,-5.23926 3.66227,-5.23927 2.11819,0 3.83532,1.96842 3.76145,5.22273 l 0.32302,118.16885"
           id="path13-1"
           sodipodi:nodetypes="ccscc" /><path
           style="fill:none;stroke:#7a7a44;stroke-width:0.826;stroke-linecap:round;stroke-linejoin:round;stroke-dasharray:none;stroke-opacity:1;paint-order:stroke fill markers"
           d="m 164.60154,249.8966 -0.60727,-117.61472 c -0.21041,-2.86117 1.35454,-4.96011 3.285,-4.9601 1.93046,0 3.4954,2.09894 3.51769,4.92703 l 0.41917,117.58164"
           id="path13-46"
           sodipodi:nodetypes="ccscc" /></g></g></g></svg>
