<?xml version="1.0" encoding="UTF-8" standalone="no"?>
<!-- Created with Inkscape (http://www.inkscape.org/) -->

<svg
   width="250"
   height="250"
   viewBox="0 0 66.145832 66.145833"
   version="1.1"
   id="svg1"
   xml:space="preserve"
   inkscape:version="1.4.3 (0d15f75, 2025-12-25)"
   sodipodi:docname="kılıçkalkan.svg"
   xmlns:inkscape="http://www.inkscape.org/namespaces/inkscape"
   xmlns:sodipodi="http://sodipodi.sourceforge.net/DTD/sodipodi-0.dtd"
   xmlns="http://www.w3.org/2000/svg"
   xmlns:svg="http://www.w3.org/2000/svg"><sodipodi:namedview
     id="namedview1"
     pagecolor="#505050"
     bordercolor="#ffffff"
     borderopacity="1"
     inkscape:showpageshadow="0"
     inkscape:pageopacity="0"
     inkscape:pagecheckerboard="1"
     inkscape:deskcolor="#505050"
     inkscape:document-units="mm"
     inkscape:zoom="2.0334082"
     inkscape:cx="156.38769"
     inkscape:cy="128.11004"
     inkscape:window-width="1920"
     inkscape:window-height="1009"
     inkscape:window-x="-8"
     inkscape:window-y="-8"
     inkscape:window-maximized="1"
     inkscape:current-layer="layer1" /><defs
     id="defs1" /><g
     inkscape:label="Layer 1"
     inkscape:groupmode="layer"
     id="layer1"><path
       style="fill:#a6a6a6;stroke:#6d6d6d;stroke-width:0.225954;stroke-linecap:round;stroke-linejoin:round;paint-order:stroke fill markers;fill-opacity:1;stroke-opacity:1"
       d="M 46.187732,14.445167 8.1886617,54.008363 c -2.3921933,3.174257 -3.8643123,6.716543 -3.8643123,6.716543 0,0 4.1403342,-2.001161 5.7044606,-3.588289 L 49.407992,17.57342 c 0,0 -0.894398,-0.68615 -3.22026,0.184015 0,0 0.349693,-3.019502 0,-3.312268 z"
       id="path1"
       sodipodi:nodetypes="ccccccc" /><path
       style="fill:none;stroke:#6d6d6d;stroke-width:0.225954;stroke-linecap:round;stroke-linejoin:round;stroke-opacity:1;paint-order:stroke fill markers"
       d="M 46.279739,17.665427 4.3701137,60.671009"
       id="path6"
       sodipodi:nodetypes="cc" /><path
       style="fill:#5b5b5c;stroke:#414142;stroke-width:0.225954;stroke-linecap:round;stroke-linejoin:round;paint-order:stroke fill markers;fill-opacity:1;stroke-opacity:1"
       d="m 44.301579,8.3956783 c 0,0 -3.289266,0.8280668 -3.105251,3.2892657 0,0 1.771144,-0.805065 2.967241,0.276022 1.426115,0.690056 2.047164,2.438198 2.047164,2.438198 0.36803,0.713058 -0.02299,3.427276 -0.02299,3.427276 0,0 1.518123,-0.920074 3.174257,-0.25302 0,0 2.139172,0.759061 2.806226,2.714219 0,0 0.437034,0.713058 0.161012,2.047166 0,0 3.58829,-0.690056 3.105251,-2.96724 0,0 -1.2651,-0.138012 -2.231178,-0.897073 L 50.765112,15.411245 48.050894,12.835037 44.784629,10.212825 C 44.278588,9.7527878 44.301579,8.3956783 44.301579,8.3956783 Z"
       id="path2"
       sodipodi:nodetypes="cccccccccccccc" /><path
       style="fill:#825531;stroke:#634025;stroke-width:0.225954;stroke-linecap:round;stroke-linejoin:round;paint-order:stroke fill markers;fill-opacity:1;stroke-opacity:1"
       d="M 48.188893,12.950046 58.30971,3.3122676 c 0,0 1.397534,0.8053043 1.97258,1.7943842 L 50.811107,15.480251 C 49.684016,14.35316 48.188893,12.950046 48.188893,12.950046 Z"
       id="path3"
       sodipodi:nodetypes="ccccc" /><path
       style="fill:#adadad;stroke:#646464;stroke-width:0.225954;stroke-linecap:round;stroke-linejoin:round;paint-order:stroke fill markers;stroke-opacity:1;fill-opacity:1"
       d="m 58.333597,3.3261456 c 0,0 -0.365953,-1.032813 -0.04879,-1.7647277 0,0 -0.07319,-0.3984868 0.935226,-0.422884 0,0 1.000285,-0.30903118 1.675273,0.032529 0,0 1.162928,0.4472813 1.187325,1.3011817 0,0 0.243974,1.4150349 0.0244,2.0656257 0,0 -0.10572,0.8051061 -0.699384,0.740047 0,0 -0.723783,0.089456 -1.146667,-0.1789123 C 59.789302,4.2613693 58.333597,3.3261456 58.333597,3.3261456 Z"
       id="path4"
       sodipodi:nodetypes="ccccccccc" /><path
       style="fill:none;stroke:#646464;stroke-width:0.225954;stroke-linecap:round;stroke-linejoin:round;paint-order:stroke fill markers;stroke-opacity:1"
       d="M 59.091774,3.8413105 60.02335,1.0465846 62.191276,3.5422863 59.379299,4.0828298"
       id="path5"
       sodipodi:nodetypes="cccc" /><path
       style="fill:#a6a6a6;stroke:#6d6d6d;stroke-width:0.225954;stroke-linecap:round;stroke-linejoin:round;paint-order:stroke fill markers;fill-opacity:1;stroke-opacity:1"
       d="m 20.260881,14.407251 37.999071,39.563196 c 2.3922,3.174257 3.86432,6.716543 3.86432,6.716543 0,0 -4.14034,-2.001161 -5.70447,-3.588289 L 17.040621,17.535504 c 0,0 0.8944,-0.68615 3.22026,0.184015 0,0 -0.34969,-3.019502 0,-3.312268 z"
       id="path1-1"
       sodipodi:nodetypes="ccccccc" /><path
       style="fill:none;stroke:#6d6d6d;stroke-width:0.225954;stroke-linecap:round;stroke-linejoin:round;stroke-opacity:1;paint-order:stroke fill markers"
       d="M 20.168881,17.627511 62.062238,60.616828"
       id="path6-6"
       sodipodi:nodetypes="cc" /><path
       style="fill:#5b5b5c;stroke:#414142;stroke-width:0.225954;stroke-linecap:round;stroke-linejoin:round;paint-order:stroke fill markers;fill-opacity:1;stroke-opacity:1"
       d="m 22.147041,8.3577621 c 0,0 3.289263,0.828067 3.105248,3.2892659 0,0 -1.771148,-0.805065 -2.967238,0.276022 -1.42612,0.690056 -2.04717,2.438198 -2.04717,2.438198 -0.36803,0.713058 0.023,3.427276 0.023,3.427276 0,0 -1.51812,-0.920074 -3.17425,-0.25302 0,0 -2.13918,0.759061 -2.80623,2.714219 0,0 -0.43703,0.713058 -0.16101,2.047166 0,0 -3.58829,-0.690056 -3.10525,-2.96724 0,0 1.2651,-0.138012 2.23117,-0.897073 l 2.4382,-3.059247 2.71422,-2.576208 3.26627,-2.622212 c 0.50604,-0.4600379 0.48305,-1.8171469 0.48305,-1.8171469 z"
       id="path2-6"
       sodipodi:nodetypes="cccccccccccccc" /><path
       style="fill:#825531;stroke:#634025;stroke-width:0.225954;stroke-linecap:round;stroke-linejoin:round;paint-order:stroke fill markers;fill-opacity:1;stroke-opacity:1"
       d="M 18.259721,12.91213 8.1389112,3.2743513 c 0,0 -1.39754,0.8053043 -1.97258,1.7943842 L 15.637511,15.442335 c 1.12709,-1.127091 2.62221,-2.530205 2.62221,-2.530205 z"
       id="path3-8"
       sodipodi:nodetypes="ccccc" /><path
       style="fill:#adadad;stroke:#646464;stroke-width:0.225954;stroke-linecap:round;stroke-linejoin:round;paint-order:stroke fill markers;fill-opacity:1;stroke-opacity:1"
       d="m 8.1150212,3.2882293 c 0,0 0.36595,-1.032813 0.0488,-1.7647277 0,0 0.0732,-0.3984868 -0.93523,-0.422884 0,0 -1.00028,-0.30903117 -1.67527,0.032529 0,0 -1.16293,0.4472813 -1.18733,1.3011817 0,0 -0.24397,1.4150349 -0.0244,2.0656257 0,0 0.10572,0.8051061 0.69939,0.740047 0,0 0.72378,0.089456 1.14667,-0.1789123 0.47167,-0.8376357 1.92738,-1.7728594 1.92738,-1.7728594 z"
       id="path4-5"
       sodipodi:nodetypes="ccccccccc" /><path
       style="fill:none;stroke:#646464;stroke-width:0.225954;stroke-linecap:round;stroke-linejoin:round;stroke-opacity:1;paint-order:stroke fill markers"
       d="M 7.3654669,3.8206456 6.4252712,1.0086683 4.2573412,3.50437 7.0865726,4.0477887"
       id="path5-7"
       sodipodi:nodetypes="cccc" /><path
       style="fill:#787878;stroke:#575757;stroke-width:0.225954;stroke-linecap:round;stroke-linejoin:round;paint-order:stroke fill markers;fill-opacity:1;stroke-opacity:1"
       d="m 13.434865,25.03466 c -0.71565,12.491344 2.92766,19.973137 2.92766,19.973137 2.407186,5.920376 10.929924,14.638295 10.929924,14.638295 l 5.90403,5.73174 5.904029,-5.718654 c 0,0 8.522738,-8.717919 10.929924,-14.638295 0,0 3.64331,-7.481793 2.92766,-19.973137 0,0 -12.556403,-1.236123 -19.761613,-6.057038 -7.205211,4.807829 -19.761614,6.043952 -19.761614,6.043952 z"
       id="path1-4"
       sodipodi:nodetypes="ccccccccc" /><g
       id="g7"><path
         style="fill:none;stroke:#634025;stroke-width:0.225954;stroke-linecap:round;stroke-linejoin:round;paint-order:stroke fill markers;stroke-opacity:1"
         d="m 48.973223,12.231107 c 0,0 2.024963,1.236123 2.529171,2.439716"
         id="path7"
         sodipodi:nodetypes="cc" /><path
         style="fill:none;stroke:#634025;stroke-width:0.225954;stroke-linecap:round;stroke-linejoin:round;paint-order:stroke fill markers;stroke-opacity:1"
         d="m 50.363759,10.913784 c 0,0 1.943639,1.171064 2.447847,2.374657"
         id="path7-7"
         sodipodi:nodetypes="cc" /><path
         style="fill:none;stroke:#634025;stroke-width:0.225954;stroke-linecap:round;stroke-linejoin:round;paint-order:stroke fill markers;stroke-opacity:1"
         d="m 51.483366,9.8429715 c 0,0 1.919242,1.0328135 2.42345,2.2364065"
         id="path7-1"
         sodipodi:nodetypes="cc" /><path
         style="fill:none;stroke:#634025;stroke-width:0.225954;stroke-linecap:round;stroke-linejoin:round;paint-order:stroke fill markers;stroke-opacity:1"
         d="m 52.813854,8.5455756 c 0,0 1.740329,1.0816074 2.244537,2.2852004"
         id="path7-11"
         sodipodi:nodetypes="cc" /><path
         style="fill:none;stroke:#634025;stroke-width:0.225954;stroke-linecap:round;stroke-linejoin:round;paint-order:stroke fill markers;stroke-opacity:1"
         d="m 53.934022,7.4698539 c 0,0 1.683403,0.9433569 2.187611,2.1469499"
         id="path7-2"
         sodipodi:nodetypes="cc" /><path
         style="fill:none;stroke:#634025;stroke-width:0.225954;stroke-linecap:round;stroke-linejoin:round;paint-order:stroke fill markers;stroke-opacity:1"
         d="m 55.243898,6.2288228 c 0,0 1.480093,0.8782977 1.984301,2.0818907"
         id="path7-19"
         sodipodi:nodetypes="cc" /><path
         style="fill:none;stroke:#634025;stroke-width:0.225954;stroke-linecap:round;stroke-linejoin:round;paint-order:stroke fill markers;stroke-opacity:1"
         d="m 56.317935,5.1780601 c 0,0 1.480093,0.8539006 1.984301,2.0574936"
         id="path7-28"
         sodipodi:nodetypes="cc" /><path
         style="fill:none;stroke:#634025;stroke-width:0.225954;stroke-linecap:round;stroke-linejoin:round;paint-order:stroke fill markers;stroke-opacity:1"
         d="m 57.36435,4.1891329 c 0,0 1.406902,0.7807091 1.91111,1.9843021"
         id="path7-8"
         sodipodi:nodetypes="cc" /></g><g
       id="g7-0"
       transform="matrix(-1,0,0,1,66.441497,-0.03390574)"><path
         style="fill:none;stroke:#634025;stroke-width:0.225954;stroke-linecap:round;stroke-linejoin:round;paint-order:stroke fill markers;stroke-opacity:1"
         d="m 48.973223,12.231107 c 0,0 2.024963,1.236123 2.529171,2.439716"
         id="path7-0"
         sodipodi:nodetypes="cc" /><path
         style="fill:none;stroke:#634025;stroke-width:0.225954;stroke-linecap:round;stroke-linejoin:round;paint-order:stroke fill markers;stroke-opacity:1"
         d="m 50.363759,10.913784 c 0,0 1.943639,1.171064 2.447847,2.374657"
         id="path7-7-6"
         sodipodi:nodetypes="cc" /><path
         style="fill:none;stroke:#634025;stroke-width:0.225954;stroke-linecap:round;stroke-linejoin:round;paint-order:stroke fill markers;stroke-opacity:1"
         d="m 51.483366,9.8429715 c 0,0 1.919242,1.0328135 2.42345,2.2364065"
         id="path7-1-1"
         sodipodi:nodetypes="cc" /><path
         style="fill:none;stroke:#634025;stroke-width:0.225954;stroke-linecap:round;stroke-linejoin:round;paint-order:stroke fill markers;stroke-opacity:1"
         d="m 52.813854,8.5455756 c 0,0 1.740329,1.0816074 2.244537,2.2852004"
         id="path7-11-3"
         sodipodi:nodetypes="cc" /><path
         style="fill:none;stroke:#634025;stroke-width:0.225954;stroke-linecap:round;stroke-linejoin:round;paint-order:stroke fill markers;stroke-opacity:1"
         d="m 53.934022,7.4698539 c 0,0 1.683403,0.9433569 2.187611,2.1469499"
         id="path7-2-8"
         sodipodi:nodetypes="cc" /><path
         style="fill:none;stroke:#634025;stroke-width:0.225954;stroke-linecap:round;stroke-linejoin:round;paint-order:stroke fill markers;stroke-opacity:1"
         d="m 55.243898,6.2288228 c 0,0 1.480093,0.8782977 1.984301,2.0818907"
         id="path7-19-9"
         sodipodi:nodetypes="cc" /><path
         style="fill:none;stroke:#634025;stroke-width:0.225954;stroke-linecap:round;stroke-linejoin:round;paint-order:stroke fill markers;stroke-opacity:1"
         d="m 56.317935,5.1780601 c 0,0 1.480093,0.8539006 1.984301,2.0574936"
         id="path7-28-3"
         sodipodi:nodetypes="cc" /><path
         style="fill:none;stroke:#634025;stroke-width:0.225954;stroke-linecap:round;stroke-linejoin:round;paint-order:stroke fill markers;stroke-opacity:1"
         d="m 57.36435,4.1891329 c 0,0 1.406902,0.7807091 1.91111,1.9843021"
         id="path7-8-4"
         sodipodi:nodetypes="cc" /></g></g></svg>
