<?xml version="1.0" encoding="UTF-8" standalone="no"?>
<!-- Created with Inkscape (http://www.inkscape.org/) -->

<svg
   width="250"
   height="250"
   viewBox="0 0 66.145832 66.145833"
   version="1.1"
   id="svg1"
   xml:space="preserve"
   inkscape:version="1.4.3 (0d15f75, 2025-12-25)"
   sodipodi:docname="kask.svg"
   xmlns:inkscape="http://www.inkscape.org/namespaces/inkscape"
   xmlns:sodipodi="http://sodipodi.sourceforge.net/DTD/sodipodi-0.dtd"
   xmlns="http://www.w3.org/2000/svg"
   xmlns:svg="http://www.w3.org/2000/svg"><sodipodi:namedview
     id="namedview1"
     pagecolor="#505050"
     bordercolor="#ffffff"
     borderopacity="1"
     inkscape:showpageshadow="0"
     inkscape:pageopacity="0"
     inkscape:pagecheckerboard="1"
     inkscape:deskcolor="#505050"
     inkscape:document-units="mm"
     inkscape:zoom="2.8284271"
     inkscape:cx="99.878833"
     inkscape:cy="150.79052"
     inkscape:window-width="1920"
     inkscape:window-height="991"
     inkscape:window-x="-9"
     inkscape:window-y="-9"
     inkscape:window-maximized="1"
     inkscape:current-layer="layer1" /><defs
     id="defs1" /><g
     inkscape:label="Layer 1"
     inkscape:groupmode="layer"
     id="layer1"><path
       style="display:inline;fill:#620000;stroke:#4e0000;stroke-width:0.226;stroke-linecap:round;stroke-linejoin:round;stroke-opacity:1;paint-order:stroke fill markers;fill-opacity:1"
       d="m 38.805944,19.090799 c 0,0 0.940949,-1.395865 0.02402,-2.88163 0,0 -1.004287,-1.850917 0.600339,-3.217821 0,0 1.020767,-1.770135 -0.312176,-3.2898605 0,0 -1.04428,-1.5508503 0,-3.2658472 0,0 0.685283,-2.2137839 -0.240136,-3.6740783 0,0 -0.216514,-0.6792793 -0.922708,-1.2391596 C 37.799331,1.3987616 36.71955,2.9450001 36.512895,2.8416064 36.29204,2.7311081 36.940499,0.97302807 36.654782,0.90597827 36.111186,0.77841136 35.443698,0.7484836 34.627587,0.88850257 c 0,0 -1.492377,0.62826623 -3.529997,0 0,0 -1.80751,-0.15190758 -2.953671,1.10462483 0,0 -0.950846,0.7176583 -0.840475,2.305304 0,0 -0.539749,1.5283363 0.3602,2.3773447 0,0 0.229232,2.100335 0,2.185236 0,0 0.127394,0.4683252 -0.840476,1.6569369 0,0 2.110895,0.351791 2.045205,0.805042 -0.04246,0.292954 -2.367909,0.621302 -2.141255,0.94795 0,0 0.259736,1.022844 1.176665,1.752991 0,0 0.403654,1.351502 -0.216122,2.353332 0,0 -0.661976,0.860033 -0.144081,2.61748 0,0 0.372521,1.267601 1.403934,1.758369 0.544837,-0.312247 1.58149,-0.441828 1.58149,-0.441828 l 0.339603,-2.071581 c 0,0 2.539019,0.776322 4.85633,0.06792 0.120068,0.63636 0.271682,1.901779 0.271682,1.901779 0,0 0.783928,0.161738 1.622215,0.533221 0,0 1.25503,-1.269771 1.18711,-1.651825 z"
       id="path2"
       sodipodi:nodetypes="ccccccssscccccccsccccccccccc" /><path
       style="display:inline;fill:#643f00;stroke:#422900;stroke-width:0.226;stroke-linecap:round;stroke-linejoin:round;stroke-opacity:1;paint-order:stroke fill markers;fill-opacity:1"
       d="m 39.224187,21.836495 c 0,0 3.497915,1.562177 4.448804,4.041281 2.614946,2.716827 3.107578,6.537864 2.68734,6.874054 0.132075,0.01201 0.674734,1.785831 0.674734,1.785831 0.828469,0.888503 0.06792,1.833858 0.06792,1.833858 -0.696394,0.384217 -0.339603,1.901779 -0.339603,1.901779 l 0.101881,12.769086 c -0.169802,3.548855 -1.154651,4.584645 -1.154651,4.584645 -2.088561,4.924249 -8.01464,8.693846 -8.01464,8.693846 l 0.315249,-12.862176 0.194156,-7.921549 c 2.07158,-0.271683 3.429994,-0.950889 3.429994,-0.950889 1.918759,-0.950889 1.833858,-2.207422 1.833858,-2.207422 -0.933909,-1.98668 -3.565835,-2.071581 -3.565835,-2.071581 -3.328113,-0.220742 -4.245042,1.901779 -4.245042,1.901779 -0.933909,1.850838 -0.475444,5.807218 -0.475444,5.807218 l -1.867819,2.207421 -2.03762,-2.479104 -0.101881,-4.618606 C 30.3945,38.612901 27.37203,38.307258 27.37203,38.307258 c -3.362073,-0.407524 -4.584645,2.309303 -4.584645,2.309303 0.96787,1.850838 2.716827,2.241382 2.716827,2.241382 0.764108,0.475445 3.158312,0.645245 3.158312,0.645245 l 0.100898,7.693521 0.170784,13.022285 c -2.716827,-0.882969 -7.369393,-6.893949 -7.369393,-6.893949 -2.377223,-3.429994 -2.00366,-9.203251 -2.00366,-9.203251 l 0.06792,-11.274829 c -0.747127,-0.203762 -0.611286,-1.460297 -0.611286,-1.460297 -0.271683,-0.950889 0.747127,-1.22257 0.747127,-1.22257 -0.373564,-1.324453 0.475445,-2.648908 0.475445,-2.648908 0,-2.00366 3.260192,-6.859987 3.260192,-6.859987 2.445144,-2.852668 5.161972,-3.633756 5.161972,-3.633756 0.271683,-0.475445 1.901777,-0.679206 1.901777,-0.679206 l 0.339603,-2.071581 c 0,0 2.539019,0.776322 4.85633,0.06792 0.120068,0.63636 0.271682,1.901779 0.271682,1.901779 0,0 2.207715,0.45549 3.192272,1.596135"
       id="path1"
       sodipodi:nodetypes="cccccccccccccccccccccccccccccccccccccc" /><path
       d="m 37.979539,51.461189 0.194156,-7.921549 c 2.07158,-0.271683 3.429994,-0.950889 3.429994,-0.950889 1.918759,-0.950889 1.833858,-2.207422 1.833858,-2.207422 -0.933909,-1.98668 -3.565835,-2.071581 -3.565835,-2.071581 -3.328113,-0.220742 -4.245042,1.901779 -4.245042,1.901779 -0.933909,1.850838 -0.475444,5.807218 -0.475444,5.807218 l -1.867819,2.207421 -2.03762,-2.479104 -0.101881,-4.618606 c -0.781088,-2.513065 -3.803558,-2.818708 -3.803558,-2.818708 -3.362073,-0.407524 -4.584645,2.309303 -4.584645,2.309303 0.96787,1.850838 2.716827,2.241382 2.716827,2.241382 0.764108,0.475445 3.158312,0.645245 3.158312,0.645245 l 0.100898,7.693521 c 0,0 5.320284,-3.530287 9.247799,0.26199 z"
       style="display:inline;fill:#422900;stroke:#422900;stroke-width:0.226;stroke-linecap:round;stroke-linejoin:round;stroke-opacity:1;paint-order:stroke fill markers;fill-opacity:1"
       id="path1-8" /><path
       d="M 19.720655,33.821081 C 22.743124,29.168515 31.991666,23.39187 31.991666,23.39187 l 1.136641,-0.894976 1.409354,0.979877 c 0,0 10.622051,5.855012 12.45591,10.847182"
       style="display:inline;fill:none;stroke:#422900;stroke-width:0.226;stroke-linecap:round;stroke-linejoin:round;stroke-opacity:1;paint-order:stroke fill markers"
       id="path1-6"
       sodipodi:nodetypes="ccccc" /><path
       d="m 35.992613,20.224624 c 0,0 -0.157461,-1.253726 -0.277529,-1.890086 -2.317311,0.708402 -4.803711,-0.07961 -4.803711,-0.07961 l -0.339603,2.071581 c -0.356584,1.731977 1.418866,3.072165 1.418866,3.072165 l 1.154651,-0.882969 1.409354,0.96787 c 0,0 1.777575,-1.611872 1.437972,-3.258948 z"
       style="display:inline;fill:none;stroke:#422900;stroke-width:0.226;stroke-linecap:round;stroke-linejoin:round;stroke-opacity:1;paint-order:stroke fill markers"
       id="path1-5"
       sodipodi:nodetypes="cccccccc" /><path
       style="fill:none;stroke:#422900;stroke-width:0.226;stroke-linecap:round;stroke-linejoin:round;stroke-opacity:1;paint-order:stroke fill markers"
       d="m 25.214262,61.443476 c 0,0 -0.04803,-8.709648 -0.912516,-11.687332 0.120068,-1.296734 -3.361902,-6.147477 -3.361902,-6.147477 -0.744421,-3.121766 0.144082,-5.571151 0.144082,-5.571151 0.09605,-1.9451 2.977684,-5.379043 2.977684,-5.379043 1.27272,-2.089182 3.313875,-1.344761 3.313875,-1.344761 1.296734,0.67238 0.816461,1.825033 0.816461,1.825033"
       id="path3"
       sodipodi:nodetypes="ccccccc" /><path
       style="fill:none;stroke:#422900;stroke-width:0.226;stroke-linecap:round;stroke-linejoin:round;stroke-opacity:1;paint-order:stroke fill markers"
       d="m 41.230374,61.524251 c 0,0 0.01407,-8.98133 0.878556,-11.959014 -0.120068,-1.296734 3.361902,-6.147477 3.361902,-6.147477 0.744421,-3.121766 -0.144082,-5.571151 -0.144082,-5.571151 -0.09605,-1.9451 -2.977684,-5.379043 -2.977684,-5.379043 -1.27272,-2.089182 -3.313875,-1.344761 -3.313875,-1.344761 -1.296734,0.67238 -0.816461,1.825033 -0.816461,1.825033"
       id="path3-8"
       sodipodi:nodetypes="ccccccc" /><path
       style="fill:none;stroke:#422900;stroke-width:0.226;stroke-linecap:round;stroke-linejoin:round;stroke-opacity:1;paint-order:stroke fill markers"
       d="m 30.41148,31.124646 c -1.188612,-0.305643 -0.526385,-1.307473 -0.526385,-1.307473 0.96787,-1.05277 1.599754,0.363984 1.884798,1.018811 0.359438,0.825732 -0.679206,2.614945 -0.679206,2.614945 -0.730147,1.103711 -2.750788,1.647076 -2.750788,1.647076 -1.477275,0.390544 -2.292322,-0.492424 -2.292322,-0.492424 -0.747127,-0.628266 -0.356584,-1.052769 -0.356584,-1.052769"
       id="path4"
       sodipodi:nodetypes="ccacccc" /><path
       style="fill:none;stroke:#422900;stroke-width:0.226;stroke-linecap:round;stroke-linejoin:round;stroke-opacity:1;paint-order:stroke fill markers"
       d="m 36.102969,31.095732 c 1.188612,-0.305643 0.526385,-1.307473 0.526385,-1.307473 -0.96787,-1.05277 -1.599754,0.363984 -1.884798,1.018811 -0.359438,0.825732 0.679206,2.614945 0.679206,2.614945 0.730147,1.103711 2.750788,1.647076 2.750788,1.647076 1.477275,0.390544 2.292322,-0.492424 2.292322,-0.492424 0.747127,-0.628266 0.356584,-1.052769 0.356584,-1.052769"
       id="path4-4"
       sodipodi:nodetypes="ccacccc" /><path
       style="fill:none;stroke:#422900;stroke-width:0.226;stroke-linecap:round;stroke-linejoin:round;stroke-opacity:1;paint-order:stroke fill markers"
       d="m 21.496892,39.46191 c 0,0 4.584645,-7.505234 10.816366,-0.322625"
       id="path5" /><path
       style="fill:none;stroke:#422900;stroke-width:0.226;stroke-linecap:round;stroke-linejoin:round;stroke-opacity:1;paint-order:stroke fill markers"
       d="m 44.979742,39.36235 c 0,0 -4.584645,-7.505234 -10.816366,-0.322625"
       id="path5-0" /></g></svg>
